<?xml version="1.0" encoding="utf-8" standalone="no"?>
<!DOCTYPE svg PUBLIC "-//W3C//DTD SVG 1.1//EN"
  "http://www.w3.org/Graphics/SVG/1.1/DTD/svg11.dtd">
<!-- Created with matplotlib (https://matplotlib.org/) -->
<svg height="446.4pt" version="1.1" viewBox="0 0 515.4 446.4" width="515.4pt" xmlns="http://www.w3.org/2000/svg" xmlns:xlink="http://www.w3.org/1999/xlink">
 <defs>
  <style type="text/css">
*{stroke-linecap:butt;stroke-linejoin:round;}
  </style>
 </defs>
 <g id="figure_1">
  <g id="patch_1">
   <path d="M 0 446.4 
L 515.4 446.4 
L 515.4 0 
L 0 0 
z
" style="fill:#ffffff;"/>
  </g>
  <g id="patch_2">
   <path d="M 7.2 439.2 
L 439.2 439.2 
L 439.2 7.2 
L 7.2 7.2 
z
" style="fill:#ffffff;"/>
  </g>
  <g id="pane3d_1">
   <g id="patch_3">
    <path d="M 64.468276 343.743225 
L 188.108936 237.826613 
L 186.05045 35.437352 
L 55.516013 130.60125 
" style="fill:#f2f2f2;opacity:0.5;stroke:#f2f2f2;stroke-linejoin:miter;"/>
   </g>
  </g>
  <g id="pane3d_2">
   <g id="patch_4">
    <path d="M 188.108936 237.826613 
L 388.395181 297.040834 
L 396.774918 88.548607 
L 186.05045 35.437352 
" style="fill:#e6e6e6;opacity:0.5;stroke:#e6e6e6;stroke-linejoin:miter;"/>
   </g>
  </g>
  <g id="pane3d_3">
   <g id="patch_5">
    <path d="M 64.468276 343.743225 
L 275.196469 412.707833 
L 388.395181 297.040834 
L 188.108936 237.826613 
" style="fill:#ececec;opacity:0.5;stroke:#ececec;stroke-linejoin:miter;"/>
   </g>
  </g>
  <g id="axis3d_1">
   <g id="line2d_1">
    <path d="M 64.468276 343.743225 
L 275.196469 412.707833 
" style="fill:none;stroke:#000000;stroke-linecap:square;stroke-width:0.8;"/>
   </g>
   <g id="text_1">
    <!-- L -->
    <defs>
     <path d="M 9.8125 72.90625 
L 19.671875 72.90625 
L 19.671875 8.296875 
L 55.171875 8.296875 
L 55.171875 0 
L 9.8125 0 
z
" id="DejaVuSans-76"/>
    </defs>
    <g transform="translate(150.725624 416.344558)scale(0.1 -0.1)">
     <use xlink:href="#DejaVuSans-76"/>
    </g>
   </g>
   <g id="Line3DCollection_1">
    <path d="M 71.28125 345.972894 
L 194.605363 239.747269 
L 192.871057 37.156427 
" style="fill:none;stroke:#b0b0b0;stroke-width:0.8;"/>
    <path d="M 109.366624 358.43702 
L 230.895225 250.476293 
L 230.989548 46.763858 
" style="fill:none;stroke:#b0b0b0;stroke-width:0.8;"/>
    <path d="M 148.100348 371.113331 
L 267.757733 261.374618 
L 269.740339 56.530655 
" style="fill:none;stroke:#b0b0b0;stroke-width:0.8;"/>
    <path d="M 187.499119 384.007291 
L 305.206547 272.446284 
L 309.139293 66.460816 
" style="fill:none;stroke:#b0b0b0;stroke-width:0.8;"/>
    <path d="M 227.580213 397.124553 
L 343.255769 283.695458 
L 349.202811 76.558475 
" style="fill:none;stroke:#b0b0b0;stroke-width:0.8;"/>
    <path d="M 268.36151 410.470969 
L 381.919954 295.126446 
L 389.947849 86.827904 
" style="fill:none;stroke:#b0b0b0;stroke-width:0.8;"/>
   </g>
   <g id="xtick_1">
    <g id="line2d_2">
     <path d="M 72.343649 345.057792 
L 69.152494 347.806505 
" style="fill:none;stroke:#000000;stroke-linecap:square;stroke-width:0.8;"/>
    </g>
    <g id="text_2">
     <!-- 50 -->
     <defs>
      <path d="M 10.796875 72.90625 
L 49.515625 72.90625 
L 49.515625 64.59375 
L 19.828125 64.59375 
L 19.828125 46.734375 
Q 21.96875 47.46875 24.109375 47.828125 
Q 26.265625 48.1875 28.421875 48.1875 
Q 40.625 48.1875 47.75 41.5 
Q 54.890625 34.8125 54.890625 23.390625 
Q 54.890625 11.625 47.5625 5.09375 
Q 40.234375 -1.421875 26.90625 -1.421875 
Q 22.3125 -1.421875 17.546875 -0.640625 
Q 12.796875 0.140625 7.71875 1.703125 
L 7.71875 11.625 
Q 12.109375 9.234375 16.796875 8.0625 
Q 21.484375 6.890625 26.703125 6.890625 
Q 35.15625 6.890625 40.078125 11.328125 
Q 45.015625 15.765625 45.015625 23.390625 
Q 45.015625 31 40.078125 35.4375 
Q 35.15625 39.890625 26.703125 39.890625 
Q 22.75 39.890625 18.8125 39.015625 
Q 14.890625 38.140625 10.796875 36.28125 
z
" id="DejaVuSans-53"/>
      <path d="M 31.78125 66.40625 
Q 24.171875 66.40625 20.328125 58.90625 
Q 16.5 51.421875 16.5 36.375 
Q 16.5 21.390625 20.328125 13.890625 
Q 24.171875 6.390625 31.78125 6.390625 
Q 39.453125 6.390625 43.28125 13.890625 
Q 47.125 21.390625 47.125 36.375 
Q 47.125 51.421875 43.28125 58.90625 
Q 39.453125 66.40625 31.78125 66.40625 
z
M 31.78125 74.21875 
Q 44.046875 74.21875 50.515625 64.515625 
Q 56.984375 54.828125 56.984375 36.375 
Q 56.984375 17.96875 50.515625 8.265625 
Q 44.046875 -1.421875 31.78125 -1.421875 
Q 19.53125 -1.421875 13.0625 8.265625 
Q 6.59375 17.96875 6.59375 36.375 
Q 6.59375 54.828125 13.0625 64.515625 
Q 19.53125 74.21875 31.78125 74.21875 
z
" id="DejaVuSans-48"/>
     </defs>
     <g transform="translate(58.535178 369.784467)scale(0.1 -0.1)">
      <use xlink:href="#DejaVuSans-53"/>
      <use x="63.623047" xlink:href="#DejaVuSans-48"/>
     </g>
    </g>
   </g>
   <g id="xtick_2">
    <g id="line2d_3">
     <path d="M 110.414186 357.506412 
L 107.267566 360.301733 
" style="fill:none;stroke:#000000;stroke-linecap:square;stroke-width:0.8;"/>
    </g>
    <g id="text_3">
     <!-- 60 -->
     <defs>
      <path d="M 33.015625 40.375 
Q 26.375 40.375 22.484375 35.828125 
Q 18.609375 31.296875 18.609375 23.390625 
Q 18.609375 15.53125 22.484375 10.953125 
Q 26.375 6.390625 33.015625 6.390625 
Q 39.65625 6.390625 43.53125 10.953125 
Q 47.40625 15.53125 47.40625 23.390625 
Q 47.40625 31.296875 43.53125 35.828125 
Q 39.65625 40.375 33.015625 40.375 
z
M 52.59375 71.296875 
L 52.59375 62.3125 
Q 48.875 64.0625 45.09375 64.984375 
Q 41.3125 65.921875 37.59375 65.921875 
Q 27.828125 65.921875 22.671875 59.328125 
Q 17.53125 52.734375 16.796875 39.40625 
Q 19.671875 43.65625 24.015625 45.921875 
Q 28.375 48.1875 33.59375 48.1875 
Q 44.578125 48.1875 50.953125 41.515625 
Q 57.328125 34.859375 57.328125 23.390625 
Q 57.328125 12.15625 50.6875 5.359375 
Q 44.046875 -1.421875 33.015625 -1.421875 
Q 20.359375 -1.421875 13.671875 8.265625 
Q 6.984375 17.96875 6.984375 36.375 
Q 6.984375 53.65625 15.1875 63.9375 
Q 23.390625 74.21875 37.203125 74.21875 
Q 40.921875 74.21875 44.703125 73.484375 
Q 48.484375 72.75 52.59375 71.296875 
z
" id="DejaVuSans-54"/>
     </defs>
     <g transform="translate(96.617385 382.402234)scale(0.1 -0.1)">
      <use xlink:href="#DejaVuSans-54"/>
      <use x="63.623047" xlink:href="#DejaVuSans-48"/>
     </g>
    </g>
   </g>
   <g id="xtick_3">
    <g id="line2d_4">
     <path d="M 149.132411 370.166818 
L 146.032312 373.009943 
" style="fill:none;stroke:#000000;stroke-linecap:square;stroke-width:0.8;"/>
    </g>
    <g id="text_4">
     <!-- 70 -->
     <defs>
      <path d="M 8.203125 72.90625 
L 55.078125 72.90625 
L 55.078125 68.703125 
L 28.609375 0 
L 18.3125 0 
L 43.21875 64.59375 
L 8.203125 64.59375 
z
" id="DejaVuSans-55"/>
     </defs>
     <g transform="translate(135.34876 395.235089)scale(0.1 -0.1)">
      <use xlink:href="#DejaVuSans-55"/>
      <use x="63.623047" xlink:href="#DejaVuSans-48"/>
     </g>
    </g>
   </g>
   <g id="xtick_4">
    <g id="line2d_5">
     <path d="M 188.514994 383.044462 
L 185.463486 385.936627 
" style="fill:none;stroke:#000000;stroke-linecap:square;stroke-width:0.8;"/>
    </g>
    <g id="text_5">
     <!-- 80 -->
     <defs>
      <path d="M 31.78125 34.625 
Q 24.75 34.625 20.71875 30.859375 
Q 16.703125 27.09375 16.703125 20.515625 
Q 16.703125 13.921875 20.71875 10.15625 
Q 24.75 6.390625 31.78125 6.390625 
Q 38.8125 6.390625 42.859375 10.171875 
Q 46.921875 13.96875 46.921875 20.515625 
Q 46.921875 27.09375 42.890625 30.859375 
Q 38.875 34.625 31.78125 34.625 
z
M 21.921875 38.8125 
Q 15.578125 40.375 12.03125 44.71875 
Q 8.5 49.078125 8.5 55.328125 
Q 8.5 64.0625 14.71875 69.140625 
Q 20.953125 74.21875 31.78125 74.21875 
Q 42.671875 74.21875 48.875 69.140625 
Q 55.078125 64.0625 55.078125 55.328125 
Q 55.078125 49.078125 51.53125 44.71875 
Q 48 40.375 41.703125 38.8125 
Q 48.828125 37.15625 52.796875 32.3125 
Q 56.78125 27.484375 56.78125 20.515625 
Q 56.78125 9.90625 50.3125 4.234375 
Q 43.84375 -1.421875 31.78125 -1.421875 
Q 19.734375 -1.421875 13.25 4.234375 
Q 6.78125 9.90625 6.78125 20.515625 
Q 6.78125 27.484375 10.78125 32.3125 
Q 14.796875 37.15625 21.921875 38.8125 
z
M 18.3125 54.390625 
Q 18.3125 48.734375 21.84375 45.5625 
Q 25.390625 42.390625 31.78125 42.390625 
Q 38.140625 42.390625 41.71875 45.5625 
Q 45.3125 48.734375 45.3125 54.390625 
Q 45.3125 60.0625 41.71875 63.234375 
Q 38.140625 66.40625 31.78125 66.40625 
Q 25.390625 66.40625 21.84375 63.234375 
Q 18.3125 60.0625 18.3125 54.390625 
z
" id="DejaVuSans-56"/>
     </defs>
     <g transform="translate(174.746043 408.288579)scale(0.1 -0.1)">
      <use xlink:href="#DejaVuSans-56"/>
      <use x="63.623047" xlink:href="#DejaVuSans-48"/>
     </g>
    </g>
   </g>
   <g id="xtick_5">
    <g id="line2d_6">
     <path d="M 228.579183 396.144983 
L 225.578421 399.087469 
" style="fill:none;stroke:#000000;stroke-linecap:square;stroke-width:0.8;"/>
    </g>
    <g id="text_6">
     <!-- 90 -->
     <defs>
      <path d="M 10.984375 1.515625 
L 10.984375 10.5 
Q 14.703125 8.734375 18.5 7.8125 
Q 22.3125 6.890625 25.984375 6.890625 
Q 35.75 6.890625 40.890625 13.453125 
Q 46.046875 20.015625 46.78125 33.40625 
Q 43.953125 29.203125 39.59375 26.953125 
Q 35.25 24.703125 29.984375 24.703125 
Q 19.046875 24.703125 12.671875 31.3125 
Q 6.296875 37.9375 6.296875 49.421875 
Q 6.296875 60.640625 12.9375 67.421875 
Q 19.578125 74.21875 30.609375 74.21875 
Q 43.265625 74.21875 49.921875 64.515625 
Q 56.59375 54.828125 56.59375 36.375 
Q 56.59375 19.140625 48.40625 8.859375 
Q 40.234375 -1.421875 26.421875 -1.421875 
Q 22.703125 -1.421875 18.890625 -0.6875 
Q 15.09375 0.046875 10.984375 1.515625 
z
M 30.609375 32.421875 
Q 37.25 32.421875 41.125 36.953125 
Q 45.015625 41.5 45.015625 49.421875 
Q 45.015625 57.28125 41.125 61.84375 
Q 37.25 66.40625 30.609375 66.40625 
Q 23.96875 66.40625 20.09375 61.84375 
Q 16.21875 57.28125 16.21875 49.421875 
Q 16.21875 41.5 20.09375 36.953125 
Q 23.96875 32.421875 30.609375 32.421875 
z
" id="DejaVuSans-57"/>
     </defs>
     <g transform="translate(214.826557 421.568444)scale(0.1 -0.1)">
      <use xlink:href="#DejaVuSans-57"/>
      <use x="63.623047" xlink:href="#DejaVuSans-48"/>
     </g>
    </g>
   </g>
   <g id="xtick_6">
    <g id="line2d_7">
     <path d="M 269.342828 409.474217 
L 266.395059 412.468349 
" style="fill:none;stroke:#000000;stroke-linecap:square;stroke-width:0.8;"/>
    </g>
    <g id="text_7">
     <!-- 100 -->
     <defs>
      <path d="M 12.40625 8.296875 
L 28.515625 8.296875 
L 28.515625 63.921875 
L 10.984375 60.40625 
L 10.984375 69.390625 
L 28.421875 72.90625 
L 38.28125 72.90625 
L 38.28125 8.296875 
L 54.390625 8.296875 
L 54.390625 0 
L 12.40625 0 
z
" id="DejaVuSans-49"/>
     </defs>
     <g transform="translate(252.42698 435.080624)scale(0.1 -0.1)">
      <use xlink:href="#DejaVuSans-49"/>
      <use x="63.623047" xlink:href="#DejaVuSans-48"/>
      <use x="127.246094" xlink:href="#DejaVuSans-48"/>
     </g>
    </g>
   </g>
  </g>
  <g id="axis3d_2">
   <g id="line2d_8">
    <path d="M 388.395181 297.040834 
L 275.196469 412.707833 
" style="fill:none;stroke:#000000;stroke-linecap:square;stroke-width:0.8;"/>
   </g>
   <g id="text_8">
    <!-- s -->
    <defs>
     <path d="M 44.28125 53.078125 
L 44.28125 44.578125 
Q 40.484375 46.53125 36.375 47.5 
Q 32.28125 48.484375 27.875 48.484375 
Q 21.1875 48.484375 17.84375 46.4375 
Q 14.5 44.390625 14.5 40.28125 
Q 14.5 37.15625 16.890625 35.375 
Q 19.28125 33.59375 26.515625 31.984375 
L 29.59375 31.296875 
Q 39.15625 29.25 43.1875 25.515625 
Q 47.21875 21.78125 47.21875 15.09375 
Q 47.21875 7.46875 41.1875 3.015625 
Q 35.15625 -1.421875 24.609375 -1.421875 
Q 20.21875 -1.421875 15.453125 -0.5625 
Q 10.6875 0.296875 5.421875 2 
L 5.421875 11.28125 
Q 10.40625 8.6875 15.234375 7.390625 
Q 20.0625 6.109375 24.8125 6.109375 
Q 31.15625 6.109375 34.5625 8.28125 
Q 37.984375 10.453125 37.984375 14.40625 
Q 37.984375 18.0625 35.515625 20.015625 
Q 33.0625 21.96875 24.703125 23.78125 
L 21.578125 24.515625 
Q 13.234375 26.265625 9.515625 29.90625 
Q 5.8125 33.546875 5.8125 39.890625 
Q 5.8125 47.609375 11.28125 51.796875 
Q 16.75 56 26.8125 56 
Q 31.78125 56 36.171875 55.265625 
Q 40.578125 54.546875 44.28125 53.078125 
z
" id="DejaVuSans-115"/>
    </defs>
    <g transform="translate(354.620037 385.312791)scale(0.1 -0.1)">
     <use xlink:href="#DejaVuSans-115"/>
    </g>
   </g>
   <g id="Line3DCollection_2">
    <path d="M 83.192224 110.424381 
L 90.602388 321.355471 
L 299.186796 388.194399 
" style="fill:none;stroke:#b0b0b0;stroke-width:0.8;"/>
    <path d="M 108.017944 92.325615 
L 114.081593 301.242041 
L 320.710982 366.20088 
" style="fill:none;stroke:#b0b0b0;stroke-width:0.8;"/>
    <path d="M 132.1301 74.747061 
L 136.919286 281.67816 
L 341.620779 344.835147 
" style="fill:none;stroke:#b0b0b0;stroke-width:0.8;"/>
    <path d="M 155.559018 57.666608 
L 159.141407 262.641609 
L 361.942121 324.0707 
" style="fill:none;stroke:#b0b0b0;stroke-width:0.8;"/>
    <path d="M 178.333335 41.063382 
L 180.772511 244.111352 
L 381.699505 303.882508 
" style="fill:none;stroke:#b0b0b0;stroke-width:0.8;"/>
   </g>
   <g id="xtick_7">
    <g id="line2d_9">
     <path d="M 297.44196 387.635283 
L 302.680326 389.313868 
" style="fill:none;stroke:#000000;stroke-linecap:square;stroke-width:0.8;"/>
    </g>
    <g id="text_9">
     <!-- 20 -->
     <defs>
      <path d="M 19.1875 8.296875 
L 53.609375 8.296875 
L 53.609375 0 
L 7.328125 0 
L 7.328125 8.296875 
Q 12.9375 14.109375 22.625 23.890625 
Q 32.328125 33.6875 34.8125 36.53125 
Q 39.546875 41.84375 41.421875 45.53125 
Q 43.3125 49.21875 43.3125 52.78125 
Q 43.3125 58.59375 39.234375 62.25 
Q 35.15625 65.921875 28.609375 65.921875 
Q 23.96875 65.921875 18.8125 64.3125 
Q 13.671875 62.703125 7.8125 59.421875 
L 7.8125 69.390625 
Q 13.765625 71.78125 18.9375 73 
Q 24.125 74.21875 28.421875 74.21875 
Q 39.75 74.21875 46.484375 68.546875 
Q 53.21875 62.890625 53.21875 53.421875 
Q 53.21875 48.921875 51.53125 44.890625 
Q 49.859375 40.875 45.40625 35.40625 
Q 44.1875 33.984375 37.640625 27.21875 
Q 31.109375 20.453125 19.1875 8.296875 
z
" id="DejaVuSans-50"/>
     </defs>
     <g transform="translate(303.781424 409.883755)scale(0.1 -0.1)">
      <use xlink:href="#DejaVuSans-50"/>
      <use x="63.623047" xlink:href="#DejaVuSans-48"/>
     </g>
    </g>
   </g>
   <g id="xtick_8">
    <g id="line2d_10">
     <path d="M 318.983592 365.657834 
L 324.169526 367.288155 
" style="fill:none;stroke:#000000;stroke-linecap:square;stroke-width:0.8;"/>
    </g>
    <g id="text_10">
     <!-- 40 -->
     <defs>
      <path d="M 37.796875 64.3125 
L 12.890625 25.390625 
L 37.796875 25.390625 
z
M 35.203125 72.90625 
L 47.609375 72.90625 
L 47.609375 25.390625 
L 58.015625 25.390625 
L 58.015625 17.1875 
L 47.609375 17.1875 
L 47.609375 0 
L 37.796875 0 
L 37.796875 17.1875 
L 4.890625 17.1875 
L 4.890625 26.703125 
z
" id="DejaVuSans-52"/>
     </defs>
     <g transform="translate(325.139305 387.694175)scale(0.1 -0.1)">
      <use xlink:href="#DejaVuSans-52"/>
      <use x="63.623047" xlink:href="#DejaVuSans-48"/>
     </g>
    </g>
   </g>
   <g id="xtick_9">
    <g id="line2d_11">
     <path d="M 339.910557 344.307489 
L 345.044896 345.891598 
" style="fill:none;stroke:#000000;stroke-linecap:square;stroke-width:0.8;"/>
    </g>
    <g id="text_11">
     <!-- 60 -->
     <g transform="translate(345.887759 366.137755)scale(0.1 -0.1)">
      <use xlink:href="#DejaVuSans-54"/>
      <use x="63.623047" xlink:href="#DejaVuSans-48"/>
     </g>
    </g>
   </g>
   <g id="xtick_10">
    <g id="line2d_12">
     <path d="M 360.248791 323.557784 
L 365.332367 325.097618 
" style="fill:none;stroke:#000000;stroke-linecap:square;stroke-width:0.8;"/>
    </g>
    <g id="text_12">
     <!-- 80 -->
     <g transform="translate(366.052502 345.187776)scale(0.1 -0.1)">
      <use xlink:href="#DejaVuSans-56"/>
      <use x="63.623047" xlink:href="#DejaVuSans-48"/>
     </g>
    </g>
   </g>
   <g id="xtick_11">
    <g id="line2d_13">
     <path d="M 380.022795 303.383726 
L 385.056427 304.881115 
" style="fill:none;stroke:#000000;stroke-linecap:square;stroke-width:0.8;"/>
    </g>
    <g id="text_13">
     <!-- 100 -->
     <g transform="translate(382.476576 324.819)scale(0.1 -0.1)">
      <use xlink:href="#DejaVuSans-49"/>
      <use x="63.623047" xlink:href="#DejaVuSans-48"/>
      <use x="127.246094" xlink:href="#DejaVuSans-48"/>
     </g>
    </g>
   </g>
  </g>
  <g id="axis3d_3">
   <g id="line2d_14">
    <path d="M 388.395181 297.040834 
L 396.774918 88.548607 
" style="fill:none;stroke:#000000;stroke-linecap:square;stroke-width:0.8;"/>
   </g>
   <g id="text_14">
    <!-- b -->
    <defs>
     <path d="M 48.6875 27.296875 
Q 48.6875 37.203125 44.609375 42.84375 
Q 40.53125 48.484375 33.40625 48.484375 
Q 26.265625 48.484375 22.1875 42.84375 
Q 18.109375 37.203125 18.109375 27.296875 
Q 18.109375 17.390625 22.1875 11.75 
Q 26.265625 6.109375 33.40625 6.109375 
Q 40.53125 6.109375 44.609375 11.75 
Q 48.6875 17.390625 48.6875 27.296875 
z
M 18.109375 46.390625 
Q 20.953125 51.265625 25.265625 53.625 
Q 29.59375 56 35.59375 56 
Q 45.5625 56 51.78125 48.09375 
Q 58.015625 40.1875 58.015625 27.296875 
Q 58.015625 14.40625 51.78125 6.484375 
Q 45.5625 -1.421875 35.59375 -1.421875 
Q 29.59375 -1.421875 25.265625 0.953125 
Q 20.953125 3.328125 18.109375 8.203125 
L 18.109375 0 
L 9.078125 0 
L 9.078125 75.984375 
L 18.109375 75.984375 
z
" id="DejaVuSans-98"/>
    </defs>
    <g transform="translate(424.905074 193.455039)scale(0.1 -0.1)">
     <use xlink:href="#DejaVuSans-98"/>
    </g>
   </g>
   <g id="Line3DCollection_3">
    <path d="M 389.606627 266.899432 
L 187.810789 208.512944 
L 63.175965 312.974963 
" style="fill:none;stroke:#b0b0b0;stroke-width:0.8;"/>
    <path d="M 391.304794 224.648144 
L 187.393171 167.453036 
L 61.363362 269.819188 
" style="fill:none;stroke:#b0b0b0;stroke-width:0.8;"/>
    <path d="M 393.039265 181.493608 
L 186.967007 125.552766 
L 59.510703 225.709746 
" style="fill:none;stroke:#b0b0b0;stroke-width:0.8;"/>
    <path d="M 394.811215 137.406547 
L 186.53203 82.78607 
L 57.616647 180.61467 
" style="fill:none;stroke:#b0b0b0;stroke-width:0.8;"/>
   </g>
   <g id="xtick_12">
    <g id="line2d_15">
     <path d="M 387.922472 266.412148 
L 392.978464 267.875021 
" style="fill:none;stroke:#000000;stroke-linecap:square;stroke-width:0.8;"/>
    </g>
    <g id="text_15">
     <!-- −20 -->
     <defs>
      <path d="M 10.59375 35.5 
L 73.1875 35.5 
L 73.1875 27.203125 
L 10.59375 27.203125 
z
" id="DejaVuSans-8722"/>
     </defs>
     <g transform="translate(395.179777 272.221764)scale(0.1 -0.1)">
      <use xlink:href="#DejaVuSans-8722"/>
      <use x="83.789062" xlink:href="#DejaVuSans-50"/>
      <use x="147.412109" xlink:href="#DejaVuSans-48"/>
     </g>
    </g>
   </g>
   <g id="xtick_13">
    <g id="line2d_16">
     <path d="M 389.602235 224.170594 
L 394.713514 225.604255 
" style="fill:none;stroke:#000000;stroke-linecap:square;stroke-width:0.8;"/>
    </g>
    <g id="text_16">
     <!-- 0 -->
     <g transform="translate(404.416506 230.015973)scale(0.1 -0.1)">
      <use xlink:href="#DejaVuSans-48"/>
     </g>
    </g>
   </g>
   <g id="xtick_14">
    <g id="line2d_17">
     <path d="M 391.317896 181.026321 
L 396.485683 182.42918 
" style="fill:none;stroke:#000000;stroke-linecap:square;stroke-width:0.8;"/>
    </g>
    <g id="text_17">
     <!-- 20 -->
     <g transform="translate(403.140707 186.909408)scale(0.1 -0.1)">
      <use xlink:href="#DejaVuSans-50"/>
      <use x="63.623047" xlink:href="#DejaVuSans-48"/>
     </g>
    </g>
   </g>
   <g id="xtick_15">
    <g id="line2d_18">
     <path d="M 393.070617 136.950081 
L 398.296174 138.320465 
" style="fill:none;stroke:#000000;stroke-linecap:square;stroke-width:0.8;"/>
    </g>
    <g id="text_18">
     <!-- 40 -->
     <g transform="translate(405.087264 142.87292)scale(0.1 -0.1)">
      <use xlink:href="#DejaVuSans-52"/>
      <use x="63.623047" xlink:href="#DejaVuSans-48"/>
     </g>
    </g>
   </g>
  </g>
  <g id="axes_1">
   <g id="Path3DCollection_1">
    <defs>
     <path d="M 0 3.162278 
C 0.838646 3.162278 1.643056 2.82908 2.236068 2.236068 
C 2.82908 1.643056 3.162278 0.838646 3.162278 0 
C 3.162278 -0.838646 2.82908 -1.643056 2.236068 -2.236068 
C 1.643056 -2.82908 0.838646 -3.162278 0 -3.162278 
C -0.838646 -3.162278 -1.643056 -2.82908 -2.236068 -2.236068 
C -2.82908 -1.643056 -3.162278 -0.838646 -3.162278 0 
C -3.162278 0.838646 -2.82908 1.643056 -2.236068 2.236068 
C -1.643056 2.82908 -0.838646 3.162278 0 3.162278 
z
" id="C0_0_46e01a273b"/>
    </defs>
    <g clip-path="url(#p168b4f754b)">
     <use style="fill:#f77189;stroke:#f77189;" x="266.230984" xlink:href="#C0_0_46e01a273b" y="270.169148"/>
    </g>
    <g clip-path="url(#p168b4f754b)">
     <use style="fill:#f77189;stroke:#f77189;" x="291.845252" xlink:href="#C0_0_46e01a273b" y="241.631801"/>
    </g>
    <g clip-path="url(#p168b4f754b)">
     <use style="fill:#f77189;stroke:#f77189;" x="303.42009" xlink:href="#C0_0_46e01a273b" y="243.481748"/>
    </g>
    <g clip-path="url(#p168b4f754b)">
     <use style="fill:#f77189;stroke:#f77189;" x="304.141709" xlink:href="#C0_0_46e01a273b" y="198.690925"/>
    </g>
    <g clip-path="url(#p168b4f754b)">
     <use style="fill:#f77189;stroke:#f77189;" x="260.555657" xlink:href="#C0_0_46e01a273b" y="254.399144"/>
    </g>
    <g clip-path="url(#p168b4f754b)">
     <use style="fill:#f77189;stroke:#f77189;" x="273.32176" xlink:href="#C0_0_46e01a273b" y="257.879315"/>
    </g>
    <g clip-path="url(#p168b4f754b)">
     <use style="fill:#f77189;stroke:#f77189;" x="282.322869" xlink:href="#C0_0_46e01a273b" y="285.532514"/>
    </g>
    <g clip-path="url(#p168b4f754b)">
     <use style="fill:#f77189;stroke:#f77189;" x="260.746003" xlink:href="#C0_0_46e01a273b" y="305.340364"/>
    </g>
    <g clip-path="url(#p168b4f754b)">
     <use style="fill:#f77189;stroke:#f77189;" x="247.27769" xlink:href="#C0_0_46e01a273b" y="319.887897"/>
    </g>
    <g clip-path="url(#p168b4f754b)">
     <use style="fill:#f77189;stroke:#f77189;" x="262.776141" xlink:href="#C0_0_46e01a273b" y="297.840007"/>
    </g>
    <g clip-path="url(#p168b4f754b)">
     <use style="fill:#f77189;stroke:#f77189;" x="253.377326" xlink:href="#C0_0_46e01a273b" y="253.282247"/>
    </g>
    <g clip-path="url(#p168b4f754b)">
     <use style="fill:#f77189;stroke:#f77189;" x="287.171706" xlink:href="#C0_0_46e01a273b" y="159.197459"/>
    </g>
    <g clip-path="url(#p168b4f754b)">
     <use style="fill:#f77189;stroke:#f77189;" x="334.724002" xlink:href="#C0_0_46e01a273b" y="120.947977"/>
    </g>
    <g clip-path="url(#p168b4f754b)">
     <use style="fill:#f77189;stroke:#f77189;" x="294.042704" xlink:href="#C0_0_46e01a273b" y="182.750743"/>
    </g>
    <g clip-path="url(#p168b4f754b)">
     <use style="fill:#f77189;stroke:#f77189;" x="257.180091" xlink:href="#C0_0_46e01a273b" y="228.785916"/>
    </g>
    <g clip-path="url(#p168b4f754b)">
     <use style="fill:#f77189;stroke:#f77189;" x="279.859783" xlink:href="#C0_0_46e01a273b" y="227.792513"/>
    </g>
    <g clip-path="url(#p168b4f754b)">
     <use style="fill:#f77189;stroke:#f77189;" x="295.813383" xlink:href="#C0_0_46e01a273b" y="257.385346"/>
    </g>
    <g clip-path="url(#p168b4f754b)">
     <use style="fill:#f77189;stroke:#f77189;" x="274.921418" xlink:href="#C0_0_46e01a273b" y="277.328777"/>
    </g>
    <g clip-path="url(#p168b4f754b)">
     <use style="fill:#f77189;stroke:#f77189;" x="222.795171" xlink:href="#C0_0_46e01a273b" y="309.209621"/>
    </g>
    <g clip-path="url(#p168b4f754b)">
     <use style="fill:#f77189;stroke:#f77189;" x="252.984278" xlink:href="#C0_0_46e01a273b" y="262.926887"/>
    </g>
    <g clip-path="url(#p168b4f754b)">
     <use style="fill:#f77189;stroke:#f77189;" x="207.1047" xlink:href="#C0_0_46e01a273b" y="174.438664"/>
    </g>
    <g clip-path="url(#p168b4f754b)">
     <use style="fill:#f77189;stroke:#f77189;" x="277.08003" xlink:href="#C0_0_46e01a273b" y="136.692802"/>
    </g>
    <g clip-path="url(#p168b4f754b)">
     <use style="fill:#f77189;stroke:#f77189;" x="323.147074" xlink:href="#C0_0_46e01a273b" y="139.325157"/>
    </g>
    <g clip-path="url(#p168b4f754b)">
     <use style="fill:#f77189;stroke:#f77189;" x="255.230073" xlink:href="#C0_0_46e01a273b" y="185.037052"/>
    </g>
    <g clip-path="url(#p168b4f754b)">
     <use style="fill:#f77189;stroke:#f77189;" x="254.829311" xlink:href="#C0_0_46e01a273b" y="173.480707"/>
    </g>
    <g clip-path="url(#p168b4f754b)">
     <use style="fill:#f77189;stroke:#f77189;" x="274.975968" xlink:href="#C0_0_46e01a273b" y="215.016725"/>
    </g>
    <g clip-path="url(#p168b4f754b)">
     <use style="fill:#f77189;stroke:#f77189;" x="275.51531" xlink:href="#C0_0_46e01a273b" y="248.883393"/>
    </g>
    <g clip-path="url(#p168b4f754b)">
     <use style="fill:#f77189;stroke:#f77189;" x="254.885538" xlink:href="#C0_0_46e01a273b" y="253.528311"/>
    </g>
    <g clip-path="url(#p168b4f754b)">
     <use style="fill:#f77189;stroke:#f77189;" x="190.833225" xlink:href="#C0_0_46e01a273b" y="291.291433"/>
    </g>
    <g clip-path="url(#p168b4f754b)">
     <use style="fill:#f77189;stroke:#f77189;" x="229.558987" xlink:href="#C0_0_46e01a273b" y="220.290322"/>
    </g>
    <g clip-path="url(#p168b4f754b)">
     <use style="fill:#50b131;stroke:#50b131;" x="271.258267" xlink:href="#C0_0_46e01a273b" y="304.58573"/>
    </g>
    <g clip-path="url(#p168b4f754b)">
     <use style="fill:#50b131;stroke:#50b131;" x="276.964277" xlink:href="#C0_0_46e01a273b" y="278.942076"/>
    </g>
    <g clip-path="url(#p168b4f754b)">
     <use style="fill:#50b131;stroke:#50b131;" x="285.864889" xlink:href="#C0_0_46e01a273b" y="286.588243"/>
    </g>
    <g clip-path="url(#p168b4f754b)">
     <use style="fill:#50b131;stroke:#50b131;" x="275.197329" xlink:href="#C0_0_46e01a273b" y="282.068076"/>
    </g>
    <g clip-path="url(#p168b4f754b)">
     <use style="fill:#50b131;stroke:#50b131;" x="266.815002" xlink:href="#C0_0_46e01a273b" y="304.260658"/>
    </g>
    <g clip-path="url(#p168b4f754b)">
     <use style="fill:#50b131;stroke:#50b131;" x="264.813408" xlink:href="#C0_0_46e01a273b" y="307.11723"/>
    </g>
    <g clip-path="url(#p168b4f754b)">
     <use style="fill:#50b131;stroke:#50b131;" x="268.51663" xlink:href="#C0_0_46e01a273b" y="314.765763"/>
    </g>
    <g clip-path="url(#p168b4f754b)">
     <use style="fill:#50b131;stroke:#50b131;" x="256.534805" xlink:href="#C0_0_46e01a273b" y="320.616622"/>
    </g>
    <g clip-path="url(#p168b4f754b)">
     <use style="fill:#50b131;stroke:#50b131;" x="252.013405" xlink:href="#C0_0_46e01a273b" y="324.346993"/>
    </g>
    <g clip-path="url(#p168b4f754b)">
     <use style="fill:#50b131;stroke:#50b131;" x="267.546914" xlink:href="#C0_0_46e01a273b" y="313.728496"/>
    </g>
    <g clip-path="url(#p168b4f754b)">
     <use style="fill:#50b131;stroke:#50b131;" x="261.632074" xlink:href="#C0_0_46e01a273b" y="286.822469"/>
    </g>
    <g clip-path="url(#p168b4f754b)">
     <use style="fill:#50b131;stroke:#50b131;" x="273.617246" xlink:href="#C0_0_46e01a273b" y="258.160544"/>
    </g>
    <g clip-path="url(#p168b4f754b)">
     <use style="fill:#50b131;stroke:#50b131;" x="285.170829" xlink:href="#C0_0_46e01a273b" y="240.433126"/>
    </g>
    <g clip-path="url(#p168b4f754b)">
     <use style="fill:#50b131;stroke:#50b131;" x="280.375803" xlink:href="#C0_0_46e01a273b" y="242.539112"/>
    </g>
    <g clip-path="url(#p168b4f754b)">
     <use style="fill:#50b131;stroke:#50b131;" x="260.605863" xlink:href="#C0_0_46e01a273b" y="274.152859"/>
    </g>
    <g clip-path="url(#p168b4f754b)">
     <use style="fill:#50b131;stroke:#50b131;" x="265.665489" xlink:href="#C0_0_46e01a273b" y="286.644819"/>
    </g>
    <g clip-path="url(#p168b4f754b)">
     <use style="fill:#50b131;stroke:#50b131;" x="257.090251" xlink:href="#C0_0_46e01a273b" y="300.11174"/>
    </g>
    <g clip-path="url(#p168b4f754b)">
     <use style="fill:#50b131;stroke:#50b131;" x="262.495814" xlink:href="#C0_0_46e01a273b" y="308.721092"/>
    </g>
    <g clip-path="url(#p168b4f754b)">
     <use style="fill:#50b131;stroke:#50b131;" x="238.693166" xlink:href="#C0_0_46e01a273b" y="316.44729"/>
    </g>
    <g clip-path="url(#p168b4f754b)">
     <use style="fill:#50b131;stroke:#50b131;" x="245.168389" xlink:href="#C0_0_46e01a273b" y="306.766035"/>
    </g>
    <g clip-path="url(#p168b4f754b)">
     <use style="fill:#50b131;stroke:#50b131;" x="249.616281" xlink:href="#C0_0_46e01a273b" y="264.243487"/>
    </g>
    <g clip-path="url(#p168b4f754b)">
     <use style="fill:#50b131;stroke:#50b131;" x="288.49788" xlink:href="#C0_0_46e01a273b" y="189.15575"/>
    </g>
    <g clip-path="url(#p168b4f754b)">
     <use style="fill:#50b131;stroke:#50b131;" x="269.564021" xlink:href="#C0_0_46e01a273b" y="224.050153"/>
    </g>
    <g clip-path="url(#p168b4f754b)">
     <use style="fill:#50b131;stroke:#50b131;" x="257.589953" xlink:href="#C0_0_46e01a273b" y="239.512325"/>
    </g>
    <g clip-path="url(#p168b4f754b)">
     <use style="fill:#50b131;stroke:#50b131;" x="261.564297" xlink:href="#C0_0_46e01a273b" y="249.876329"/>
    </g>
    <g clip-path="url(#p168b4f754b)">
     <use style="fill:#50b131;stroke:#50b131;" x="249.36475" xlink:href="#C0_0_46e01a273b" y="276.139583"/>
    </g>
    <g clip-path="url(#p168b4f754b)">
     <use style="fill:#50b131;stroke:#50b131;" x="278.835347" xlink:href="#C0_0_46e01a273b" y="274.454091"/>
    </g>
    <g clip-path="url(#p168b4f754b)">
     <use style="fill:#50b131;stroke:#50b131;" x="249.604648" xlink:href="#C0_0_46e01a273b" y="294.288317"/>
    </g>
    <g clip-path="url(#p168b4f754b)">
     <use style="fill:#50b131;stroke:#50b131;" x="224.154023" xlink:href="#C0_0_46e01a273b" y="299.849941"/>
    </g>
    <g clip-path="url(#p168b4f754b)">
     <use style="fill:#50b131;stroke:#50b131;" x="240.515218" xlink:href="#C0_0_46e01a273b" y="290.253359"/>
    </g>
    <g clip-path="url(#p168b4f754b)">
     <use style="fill:#3ba3ec;stroke:#3ba3ec;" x="253.407129" xlink:href="#C0_0_46e01a273b" y="251.017878"/>
    </g>
    <g clip-path="url(#p168b4f754b)">
     <use style="fill:#3ba3ec;stroke:#3ba3ec;" x="282.444464" xlink:href="#C0_0_46e01a273b" y="195.829585"/>
    </g>
    <g clip-path="url(#p168b4f754b)">
     <use style="fill:#3ba3ec;stroke:#3ba3ec;" x="275.974816" xlink:href="#C0_0_46e01a273b" y="203.79833"/>
    </g>
    <g clip-path="url(#p168b4f754b)">
     <use style="fill:#3ba3ec;stroke:#3ba3ec;" x="239.686095" xlink:href="#C0_0_46e01a273b" y="222.177665"/>
    </g>
    <g clip-path="url(#p168b4f754b)">
     <use style="fill:#3ba3ec;stroke:#3ba3ec;" x="227.915691" xlink:href="#C0_0_46e01a273b" y="226.733799"/>
    </g>
    <g clip-path="url(#p168b4f754b)">
     <use style="fill:#3ba3ec;stroke:#3ba3ec;" x="241.721535" xlink:href="#C0_0_46e01a273b" y="239.434356"/>
    </g>
    <g clip-path="url(#p168b4f754b)">
     <use style="fill:#3ba3ec;stroke:#3ba3ec;" x="234.262313" xlink:href="#C0_0_46e01a273b" y="284.560599"/>
    </g>
    <g clip-path="url(#p168b4f754b)">
     <use style="fill:#3ba3ec;stroke:#3ba3ec;" x="230.729926" xlink:href="#C0_0_46e01a273b" y="295.959282"/>
    </g>
    <g clip-path="url(#p168b4f754b)">
     <use style="fill:#3ba3ec;stroke:#3ba3ec;" x="216.272686" xlink:href="#C0_0_46e01a273b" y="307.607719"/>
    </g>
    <g clip-path="url(#p168b4f754b)">
     <use style="fill:#3ba3ec;stroke:#3ba3ec;" x="229.634522" xlink:href="#C0_0_46e01a273b" y="283.724944"/>
    </g>
    <g clip-path="url(#p168b4f754b)">
     <use style="fill:#3ba3ec;stroke:#3ba3ec;" x="225.133915" xlink:href="#C0_0_46e01a273b" y="256.750508"/>
    </g>
    <g clip-path="url(#p168b4f754b)">
     <use style="fill:#3ba3ec;stroke:#3ba3ec;" x="222.138825" xlink:href="#C0_0_46e01a273b" y="244.521738"/>
    </g>
    <g clip-path="url(#p168b4f754b)">
     <use style="fill:#3ba3ec;stroke:#3ba3ec;" x="218.206451" xlink:href="#C0_0_46e01a273b" y="227.582339"/>
    </g>
    <g clip-path="url(#p168b4f754b)">
     <use style="fill:#3ba3ec;stroke:#3ba3ec;" x="224.304521" xlink:href="#C0_0_46e01a273b" y="228.401463"/>
    </g>
    <g clip-path="url(#p168b4f754b)">
     <use style="fill:#3ba3ec;stroke:#3ba3ec;" x="194.005331" xlink:href="#C0_0_46e01a273b" y="239.934707"/>
    </g>
    <g clip-path="url(#p168b4f754b)">
     <use style="fill:#3ba3ec;stroke:#3ba3ec;" x="215.592726" xlink:href="#C0_0_46e01a273b" y="261.25709"/>
    </g>
    <g clip-path="url(#p168b4f754b)">
     <use style="fill:#3ba3ec;stroke:#3ba3ec;" x="218.68337" xlink:href="#C0_0_46e01a273b" y="269.92594"/>
    </g>
    <g clip-path="url(#p168b4f754b)">
     <use style="fill:#3ba3ec;stroke:#3ba3ec;" x="197.357803" xlink:href="#C0_0_46e01a273b" y="285.510532"/>
    </g>
    <g clip-path="url(#p168b4f754b)">
     <use style="fill:#3ba3ec;stroke:#3ba3ec;" x="209.615397" xlink:href="#C0_0_46e01a273b" y="304.498604"/>
    </g>
    <g clip-path="url(#p168b4f754b)">
     <use style="fill:#3ba3ec;stroke:#3ba3ec;" x="208.640871" xlink:href="#C0_0_46e01a273b" y="274.932327"/>
    </g>
    <g clip-path="url(#p168b4f754b)">
     <use style="fill:#3ba3ec;stroke:#3ba3ec;" x="176.061733" xlink:href="#C0_0_46e01a273b" y="207.527221"/>
    </g>
    <g clip-path="url(#p168b4f754b)">
     <use style="fill:#3ba3ec;stroke:#3ba3ec;" x="198.376799" xlink:href="#C0_0_46e01a273b" y="194.202258"/>
    </g>
    <g clip-path="url(#p168b4f754b)">
     <use style="fill:#3ba3ec;stroke:#3ba3ec;" x="181.308529" xlink:href="#C0_0_46e01a273b" y="234.17234"/>
    </g>
    <g clip-path="url(#p168b4f754b)">
     <use style="fill:#3ba3ec;stroke:#3ba3ec;" x="167.001853" xlink:href="#C0_0_46e01a273b" y="243.465234"/>
    </g>
    <g clip-path="url(#p168b4f754b)">
     <use style="fill:#3ba3ec;stroke:#3ba3ec;" x="233.472007" xlink:href="#C0_0_46e01a273b" y="188.819627"/>
    </g>
    <g clip-path="url(#p168b4f754b)">
     <use style="fill:#3ba3ec;stroke:#3ba3ec;" x="212.955293" xlink:href="#C0_0_46e01a273b" y="232.700382"/>
    </g>
    <g clip-path="url(#p168b4f754b)">
     <use style="fill:#3ba3ec;stroke:#3ba3ec;" x="232.188473" xlink:href="#C0_0_46e01a273b" y="245.48978"/>
    </g>
    <g clip-path="url(#p168b4f754b)">
     <use style="fill:#3ba3ec;stroke:#3ba3ec;" x="208.827076" xlink:href="#C0_0_46e01a273b" y="262.858018"/>
    </g>
    <g clip-path="url(#p168b4f754b)">
     <use style="fill:#3ba3ec;stroke:#3ba3ec;" x="159.904003" xlink:href="#C0_0_46e01a273b" y="279.250856"/>
    </g>
    <g clip-path="url(#p168b4f754b)">
     <use style="fill:#3ba3ec;stroke:#3ba3ec;" x="178.023832" xlink:href="#C0_0_46e01a273b" y="256.938441"/>
    </g>
    <g clip-path="url(#p168b4f754b)">
     <use style="fill:#e866f4;stroke:#e866f4;" x="198.823505" xlink:href="#C0_0_46e01a273b" y="190.810384"/>
    </g>
    <g clip-path="url(#p168b4f754b)">
     <use style="fill:#e866f4;stroke:#e866f4;" x="250.400299" xlink:href="#C0_0_46e01a273b" y="129.571185"/>
    </g>
    <g clip-path="url(#p168b4f754b)">
     <use style="fill:#e866f4;stroke:#e866f4;" x="323.570193" xlink:href="#C0_0_46e01a273b" y="122.208191"/>
    </g>
    <g clip-path="url(#p168b4f754b)">
     <use style="fill:#e866f4;stroke:#e866f4;" x="247.538895" xlink:href="#C0_0_46e01a273b" y="190.523738"/>
    </g>
    <g clip-path="url(#p168b4f754b)">
     <use style="fill:#e866f4;stroke:#e866f4;" x="254.225025" xlink:href="#C0_0_46e01a273b" y="189.301282"/>
    </g>
    <g clip-path="url(#p168b4f754b)">
     <use style="fill:#e866f4;stroke:#e866f4;" x="270.685812" xlink:href="#C0_0_46e01a273b" y="231.712012"/>
    </g>
    <g clip-path="url(#p168b4f754b)">
     <use style="fill:#e866f4;stroke:#e866f4;" x="251.347702" xlink:href="#C0_0_46e01a273b" y="249.235938"/>
    </g>
    <g clip-path="url(#p168b4f754b)">
     <use style="fill:#e866f4;stroke:#e866f4;" x="212.394793" xlink:href="#C0_0_46e01a273b" y="273.880894"/>
    </g>
    <g clip-path="url(#p168b4f754b)">
     <use style="fill:#e866f4;stroke:#e866f4;" x="199.202368" xlink:href="#C0_0_46e01a273b" y="291.903365"/>
    </g>
    <g clip-path="url(#p168b4f754b)">
     <use style="fill:#e866f4;stroke:#e866f4;" x="219.227001" xlink:href="#C0_0_46e01a273b" y="228.757297"/>
    </g>
    <g clip-path="url(#p168b4f754b)">
     <use style="fill:#e866f4;stroke:#e866f4;" x="168.009165" xlink:href="#C0_0_46e01a273b" y="211.738708"/>
    </g>
    <g clip-path="url(#p168b4f754b)">
     <use style="fill:#e866f4;stroke:#e866f4;" x="145.182875" xlink:href="#C0_0_46e01a273b" y="226.564287"/>
    </g>
    <g clip-path="url(#p168b4f754b)">
     <use style="fill:#e866f4;stroke:#e866f4;" x="162.529166" xlink:href="#C0_0_46e01a273b" y="229.384304"/>
    </g>
    <g clip-path="url(#p168b4f754b)">
     <use style="fill:#e866f4;stroke:#e866f4;" x="136.70795" xlink:href="#C0_0_46e01a273b" y="245.562425"/>
    </g>
    <g clip-path="url(#p168b4f754b)">
     <use style="fill:#e866f4;stroke:#e866f4;" x="183.671613" xlink:href="#C0_0_46e01a273b" y="230.848451"/>
    </g>
    <g clip-path="url(#p168b4f754b)">
     <use style="fill:#e866f4;stroke:#e866f4;" x="170.742047" xlink:href="#C0_0_46e01a273b" y="250.849303"/>
    </g>
    <g clip-path="url(#p168b4f754b)">
     <use style="fill:#e866f4;stroke:#e866f4;" x="187.778058" xlink:href="#C0_0_46e01a273b" y="264.681912"/>
    </g>
    <g clip-path="url(#p168b4f754b)">
     <use style="fill:#e866f4;stroke:#e866f4;" x="173.79056" xlink:href="#C0_0_46e01a273b" y="276.665721"/>
    </g>
    <g clip-path="url(#p168b4f754b)">
     <use style="fill:#e866f4;stroke:#e866f4;" x="163.343939" xlink:href="#C0_0_46e01a273b" y="281.690559"/>
    </g>
    <g clip-path="url(#p168b4f754b)">
     <use style="fill:#e866f4;stroke:#e866f4;" x="162.029671" xlink:href="#C0_0_46e01a273b" y="228.096919"/>
    </g>
    <g clip-path="url(#p168b4f754b)">
     <use style="fill:#e866f4;stroke:#e866f4;" x="153.310353" xlink:href="#C0_0_46e01a273b" y="235.97274"/>
    </g>
    <g clip-path="url(#p168b4f754b)">
     <use style="fill:#e866f4;stroke:#e866f4;" x="133.978529" xlink:href="#C0_0_46e01a273b" y="239.601803"/>
    </g>
    <g clip-path="url(#p168b4f754b)">
     <use style="fill:#e866f4;stroke:#e866f4;" x="148.405683" xlink:href="#C0_0_46e01a273b" y="231.463205"/>
    </g>
    <g clip-path="url(#p168b4f754b)">
     <use style="fill:#e866f4;stroke:#e866f4;" x="132.725889" xlink:href="#C0_0_46e01a273b" y="255.845647"/>
    </g>
    <g clip-path="url(#p168b4f754b)">
     <use style="fill:#e866f4;stroke:#e866f4;" x="141.410288" xlink:href="#C0_0_46e01a273b" y="235.433699"/>
    </g>
    <g clip-path="url(#p168b4f754b)">
     <use style="fill:#e866f4;stroke:#e866f4;" x="159.704949" xlink:href="#C0_0_46e01a273b" y="245.456044"/>
    </g>
    <g clip-path="url(#p168b4f754b)">
     <use style="fill:#e866f4;stroke:#e866f4;" x="165.119236" xlink:href="#C0_0_46e01a273b" y="248.002412"/>
    </g>
    <g clip-path="url(#p168b4f754b)">
     <use style="fill:#e866f4;stroke:#e866f4;" x="125.466756" xlink:href="#C0_0_46e01a273b" y="257.721627"/>
    </g>
    <g clip-path="url(#p168b4f754b)">
     <use style="fill:#e866f4;stroke:#e866f4;" x="137.08783" xlink:href="#C0_0_46e01a273b" y="272.41985"/>
    </g>
    <g clip-path="url(#p168b4f754b)">
     <use style="fill:#e866f4;stroke:#e866f4;" x="141.749174" xlink:href="#C0_0_46e01a273b" y="248.894727"/>
    </g>
   </g>
   <g id="text_19">
    <!-- ax.scatter -->
    <defs>
     <path d="M 34.28125 27.484375 
Q 23.390625 27.484375 19.1875 25 
Q 14.984375 22.515625 14.984375 16.5 
Q 14.984375 11.71875 18.140625 8.90625 
Q 21.296875 6.109375 26.703125 6.109375 
Q 34.1875 6.109375 38.703125 11.40625 
Q 43.21875 16.703125 43.21875 25.484375 
L 43.21875 27.484375 
z
M 52.203125 31.203125 
L 52.203125 0 
L 43.21875 0 
L 43.21875 8.296875 
Q 40.140625 3.328125 35.546875 0.953125 
Q 30.953125 -1.421875 24.3125 -1.421875 
Q 15.921875 -1.421875 10.953125 3.296875 
Q 6 8.015625 6 15.921875 
Q 6 25.140625 12.171875 29.828125 
Q 18.359375 34.515625 30.609375 34.515625 
L 43.21875 34.515625 
L 43.21875 35.40625 
Q 43.21875 41.609375 39.140625 45 
Q 35.0625 48.390625 27.6875 48.390625 
Q 23 48.390625 18.546875 47.265625 
Q 14.109375 46.140625 10.015625 43.890625 
L 10.015625 52.203125 
Q 14.9375 54.109375 19.578125 55.046875 
Q 24.21875 56 28.609375 56 
Q 40.484375 56 46.34375 49.84375 
Q 52.203125 43.703125 52.203125 31.203125 
z
" id="DejaVuSans-97"/>
     <path d="M 54.890625 54.6875 
L 35.109375 28.078125 
L 55.90625 0 
L 45.3125 0 
L 29.390625 21.484375 
L 13.484375 0 
L 2.875 0 
L 24.125 28.609375 
L 4.6875 54.6875 
L 15.28125 54.6875 
L 29.78125 35.203125 
L 44.28125 54.6875 
z
" id="DejaVuSans-120"/>
     <path d="M 10.6875 12.40625 
L 21 12.40625 
L 21 0 
L 10.6875 0 
z
" id="DejaVuSans-46"/>
     <path d="M 48.78125 52.59375 
L 48.78125 44.1875 
Q 44.96875 46.296875 41.140625 47.34375 
Q 37.3125 48.390625 33.40625 48.390625 
Q 24.65625 48.390625 19.8125 42.84375 
Q 14.984375 37.3125 14.984375 27.296875 
Q 14.984375 17.28125 19.8125 11.734375 
Q 24.65625 6.203125 33.40625 6.203125 
Q 37.3125 6.203125 41.140625 7.25 
Q 44.96875 8.296875 48.78125 10.40625 
L 48.78125 2.09375 
Q 45.015625 0.34375 40.984375 -0.53125 
Q 36.96875 -1.421875 32.421875 -1.421875 
Q 20.0625 -1.421875 12.78125 6.34375 
Q 5.515625 14.109375 5.515625 27.296875 
Q 5.515625 40.671875 12.859375 48.328125 
Q 20.21875 56 33.015625 56 
Q 37.15625 56 41.109375 55.140625 
Q 45.0625 54.296875 48.78125 52.59375 
z
" id="DejaVuSans-99"/>
     <path d="M 18.3125 70.21875 
L 18.3125 54.6875 
L 36.8125 54.6875 
L 36.8125 47.703125 
L 18.3125 47.703125 
L 18.3125 18.015625 
Q 18.3125 11.328125 20.140625 9.421875 
Q 21.96875 7.515625 27.59375 7.515625 
L 36.8125 7.515625 
L 36.8125 0 
L 27.59375 0 
Q 17.1875 0 13.234375 3.875 
Q 9.28125 7.765625 9.28125 18.015625 
L 9.28125 47.703125 
L 2.6875 47.703125 
L 2.6875 54.6875 
L 9.28125 54.6875 
L 9.28125 70.21875 
z
" id="DejaVuSans-116"/>
     <path d="M 56.203125 29.59375 
L 56.203125 25.203125 
L 14.890625 25.203125 
Q 15.484375 15.921875 20.484375 11.0625 
Q 25.484375 6.203125 34.421875 6.203125 
Q 39.59375 6.203125 44.453125 7.46875 
Q 49.3125 8.734375 54.109375 11.28125 
L 54.109375 2.78125 
Q 49.265625 0.734375 44.1875 -0.34375 
Q 39.109375 -1.421875 33.890625 -1.421875 
Q 20.796875 -1.421875 13.15625 6.1875 
Q 5.515625 13.8125 5.515625 26.8125 
Q 5.515625 40.234375 12.765625 48.109375 
Q 20.015625 56 32.328125 56 
Q 43.359375 56 49.78125 48.890625 
Q 56.203125 41.796875 56.203125 29.59375 
z
M 47.21875 32.234375 
Q 47.125 39.59375 43.09375 43.984375 
Q 39.0625 48.390625 32.421875 48.390625 
Q 24.90625 48.390625 20.390625 44.140625 
Q 15.875 39.890625 15.1875 32.171875 
z
" id="DejaVuSans-101"/>
     <path d="M 41.109375 46.296875 
Q 39.59375 47.171875 37.8125 47.578125 
Q 36.03125 48 33.890625 48 
Q 26.265625 48 22.1875 43.046875 
Q 18.109375 38.09375 18.109375 28.8125 
L 18.109375 0 
L 9.078125 0 
L 9.078125 54.6875 
L 18.109375 54.6875 
L 18.109375 46.1875 
Q 20.953125 51.171875 25.484375 53.578125 
Q 30.03125 56 36.53125 56 
Q 37.453125 56 38.578125 55.875 
Q 39.703125 55.765625 41.0625 55.515625 
z
" id="DejaVuSans-114"/>
    </defs>
    <g transform="translate(193.100625 35.76)scale(0.12 -0.12)">
     <use xlink:href="#DejaVuSans-97"/>
     <use x="61.279297" xlink:href="#DejaVuSans-120"/>
     <use x="120.458984" xlink:href="#DejaVuSans-46"/>
     <use x="152.246094" xlink:href="#DejaVuSans-115"/>
     <use x="204.345703" xlink:href="#DejaVuSans-99"/>
     <use x="259.326172" xlink:href="#DejaVuSans-97"/>
     <use x="320.605469" xlink:href="#DejaVuSans-116"/>
     <use x="359.814453" xlink:href="#DejaVuSans-116"/>
     <use x="399.023438" xlink:href="#DejaVuSans-101"/>
     <use x="460.546875" xlink:href="#DejaVuSans-114"/>
    </g>
   </g>
   <g id="legend_1">
    <g id="patch_6">
     <path d="M 467.8 73.9125 
L 506.2 73.9125 
Q 508.2 73.9125 508.2 71.9125 
L 508.2 14.2 
Q 508.2 12.2 506.2 12.2 
L 467.8 12.2 
Q 465.8 12.2 465.8 14.2 
L 465.8 71.9125 
Q 465.8 73.9125 467.8 73.9125 
z
" style="fill:#ffffff;opacity:0.8;stroke:#cccccc;stroke-linejoin:miter;"/>
    </g>
    <g id="line2d_19"/>
    <g id="line2d_20">
     <defs>
      <path d="M 0 3 
C 0.795609 3 1.55874 2.683901 2.12132 2.12132 
C 2.683901 1.55874 3 0.795609 3 0 
C 3 -0.795609 2.683901 -1.55874 2.12132 -2.12132 
C 1.55874 -2.683901 0.795609 -3 0 -3 
C -0.795609 -3 -1.55874 -2.683901 -2.12132 -2.12132 
C -2.683901 -1.55874 -3 -0.795609 -3 0 
C -3 0.795609 -2.683901 1.55874 -2.12132 2.12132 
C -1.55874 2.683901 -0.795609 3 0 3 
z
" id="me5dd005934" style="stroke:#f77189;"/>
     </defs>
     <g>
      <use style="fill:#f77189;stroke:#f77189;" x="479.8" xlink:href="#me5dd005934" y="20.298438"/>
     </g>
    </g>
    <g id="text_20">
     <!-- $\mathdefault{0}$ -->
     <g transform="translate(497.8 23.798438)scale(0.1 -0.1)">
      <use transform="translate(0 0.78125)" xlink:href="#DejaVuSans-48"/>
     </g>
    </g>
    <g id="line2d_21"/>
    <g id="line2d_22">
     <defs>
      <path d="M 0 3 
C 0.795609 3 1.55874 2.683901 2.12132 2.12132 
C 2.683901 1.55874 3 0.795609 3 0 
C 3 -0.795609 2.683901 -1.55874 2.12132 -2.12132 
C 1.55874 -2.683901 0.795609 -3 0 -3 
C -0.795609 -3 -1.55874 -2.683901 -2.12132 -2.12132 
C -2.683901 -1.55874 -3 -0.795609 -3 0 
C -3 0.795609 -2.683901 1.55874 -2.12132 2.12132 
C -1.55874 2.683901 -0.795609 3 0 3 
z
" id="m3211959329" style="stroke:#50b131;"/>
     </defs>
     <g>
      <use style="fill:#50b131;stroke:#50b131;" x="479.8" xlink:href="#m3211959329" y="34.976563"/>
     </g>
    </g>
    <g id="text_21">
     <!-- $\mathdefault{1}$ -->
     <g transform="translate(497.8 38.476563)scale(0.1 -0.1)">
      <use transform="translate(0 0.09375)" xlink:href="#DejaVuSans-49"/>
     </g>
    </g>
    <g id="line2d_23"/>
    <g id="line2d_24">
     <defs>
      <path d="M 0 3 
C 0.795609 3 1.55874 2.683901 2.12132 2.12132 
C 2.683901 1.55874 3 0.795609 3 0 
C 3 -0.795609 2.683901 -1.55874 2.12132 -2.12132 
C 1.55874 -2.683901 0.795609 -3 0 -3 
C -0.795609 -3 -1.55874 -2.683901 -2.12132 -2.12132 
C -2.683901 -1.55874 -3 -0.795609 -3 0 
C -3 0.795609 -2.683901 1.55874 -2.12132 2.12132 
C -1.55874 2.683901 -0.795609 3 0 3 
z
" id="m01aae6248d" style="stroke:#3ba3ec;"/>
     </defs>
     <g>
      <use style="fill:#3ba3ec;stroke:#3ba3ec;" x="479.8" xlink:href="#m01aae6248d" y="49.654688"/>
     </g>
    </g>
    <g id="text_22">
     <!-- $\mathdefault{2}$ -->
     <g transform="translate(497.8 53.154688)scale(0.1 -0.1)">
      <use transform="translate(0 0.78125)" xlink:href="#DejaVuSans-50"/>
     </g>
    </g>
    <g id="line2d_25"/>
    <g id="line2d_26">
     <defs>
      <path d="M 0 3 
C 0.795609 3 1.55874 2.683901 2.12132 2.12132 
C 2.683901 1.55874 3 0.795609 3 0 
C 3 -0.795609 2.683901 -1.55874 2.12132 -2.12132 
C 1.55874 -2.683901 0.795609 -3 0 -3 
C -0.795609 -3 -1.55874 -2.683901 -2.12132 -2.12132 
C -2.683901 -1.55874 -3 -0.795609 -3 0 
C -3 0.795609 -2.683901 1.55874 -2.12132 2.12132 
C -1.55874 2.683901 -0.795609 3 0 3 
z
" id="maf8127913c" style="stroke:#e866f4;"/>
     </defs>
     <g>
      <use style="fill:#e866f4;stroke:#e866f4;" x="479.8" xlink:href="#maf8127913c" y="64.332813"/>
     </g>
    </g>
    <g id="text_23">
     <!-- $\mathdefault{3}$ -->
     <defs>
      <path d="M 40.578125 39.3125 
Q 47.65625 37.796875 51.625 33 
Q 55.609375 28.21875 55.609375 21.1875 
Q 55.609375 10.40625 48.1875 4.484375 
Q 40.765625 -1.421875 27.09375 -1.421875 
Q 22.515625 -1.421875 17.65625 -0.515625 
Q 12.796875 0.390625 7.625 2.203125 
L 7.625 11.71875 
Q 11.71875 9.328125 16.59375 8.109375 
Q 21.484375 6.890625 26.8125 6.890625 
Q 36.078125 6.890625 40.9375 10.546875 
Q 45.796875 14.203125 45.796875 21.1875 
Q 45.796875 27.640625 41.28125 31.265625 
Q 36.765625 34.90625 28.71875 34.90625 
L 20.21875 34.90625 
L 20.21875 43.015625 
L 29.109375 43.015625 
Q 36.375 43.015625 40.234375 45.921875 
Q 44.09375 48.828125 44.09375 54.296875 
Q 44.09375 59.90625 40.109375 62.90625 
Q 36.140625 65.921875 28.71875 65.921875 
Q 24.65625 65.921875 20.015625 65.03125 
Q 15.375 64.15625 9.8125 62.3125 
L 9.8125 71.09375 
Q 15.4375 72.65625 20.34375 73.4375 
Q 25.25 74.21875 29.59375 74.21875 
Q 40.828125 74.21875 47.359375 69.109375 
Q 53.90625 64.015625 53.90625 55.328125 
Q 53.90625 49.265625 50.4375 45.09375 
Q 46.96875 40.921875 40.578125 39.3125 
z
" id="DejaVuSans-51"/>
     </defs>
     <g transform="translate(497.8 67.832813)scale(0.1 -0.1)">
      <use transform="translate(0 0.78125)" xlink:href="#DejaVuSans-51"/>
     </g>
    </g>
   </g>
  </g>
 </g>
 <defs>
  <clipPath id="p168b4f754b">
   <rect height="432" width="432" x="7.2" y="7.2"/>
  </clipPath>
 </defs>
</svg>
