<?xml version="1.0" encoding="utf-8" standalone="no"?>
<!DOCTYPE svg PUBLIC "-//W3C//DTD SVG 1.1//EN"
  "http://www.w3.org/Graphics/SVG/1.1/DTD/svg11.dtd">
<!-- Created with matplotlib (https://matplotlib.org/) -->
<svg height="446.4pt" version="1.1" viewBox="0 0 515.4 446.4" width="515.4pt" xmlns="http://www.w3.org/2000/svg" xmlns:xlink="http://www.w3.org/1999/xlink">
 <defs>
  <style type="text/css">
*{stroke-linecap:butt;stroke-linejoin:round;}
  </style>
 </defs>
 <g id="figure_1">
  <g id="patch_1">
   <path d="M 0 446.4 
L 515.4 446.4 
L 515.4 0 
L 0 0 
z
" style="fill:#ffffff;"/>
  </g>
  <g id="patch_2">
   <path d="M 7.2 439.2 
L 439.2 439.2 
L 439.2 7.2 
L 7.2 7.2 
z
" style="fill:#ffffff;"/>
  </g>
  <g id="pane3d_1">
   <g id="patch_3">
    <path d="M 64.468276 343.743225 
L 188.108936 237.826613 
L 186.05045 35.437352 
L 55.516013 130.60125 
" style="fill:#f2f2f2;opacity:0.5;stroke:#f2f2f2;stroke-linejoin:miter;"/>
   </g>
  </g>
  <g id="pane3d_2">
   <g id="patch_4">
    <path d="M 188.108936 237.826613 
L 388.395181 297.040834 
L 396.774918 88.548607 
L 186.05045 35.437352 
" style="fill:#e6e6e6;opacity:0.5;stroke:#e6e6e6;stroke-linejoin:miter;"/>
   </g>
  </g>
  <g id="pane3d_3">
   <g id="patch_5">
    <path d="M 64.468276 343.743225 
L 275.196469 412.707833 
L 388.395181 297.040834 
L 188.108936 237.826613 
" style="fill:#ececec;opacity:0.5;stroke:#ececec;stroke-linejoin:miter;"/>
   </g>
  </g>
  <g id="axis3d_1">
   <g id="line2d_1">
    <path d="M 64.468276 343.743225 
L 275.196469 412.707833 
" style="fill:none;stroke:#000000;stroke-linecap:square;stroke-width:0.8;"/>
   </g>
   <g id="text_1">
    <!-- H -->
    <defs>
     <path d="M 9.8125 72.90625 
L 19.671875 72.90625 
L 19.671875 43.015625 
L 55.515625 43.015625 
L 55.515625 72.90625 
L 65.375 72.90625 
L 65.375 0 
L 55.515625 0 
L 55.515625 34.71875 
L 19.671875 34.71875 
L 19.671875 0 
L 9.8125 0 
z
" id="DejaVuSans-72"/>
    </defs>
    <g transform="translate(149.751406 416.344558)scale(0.1 -0.1)">
     <use xlink:href="#DejaVuSans-72"/>
    </g>
   </g>
   <g id="Line3DCollection_1">
    <path d="M 77.315627 347.947753 
L 200.358191 241.44808 
L 198.911762 38.678933 
" style="fill:none;stroke:#b0b0b0;stroke-width:0.8;"/>
    <path d="M 102.204449 356.093069 
L 224.074069 248.459632 
L 223.822382 44.957437 
" style="fill:none;stroke:#b0b0b0;stroke-width:0.8;"/>
    <path d="M 127.368972 364.328614 
L 248.033541 255.543201 
L 249.001912 51.303716 
" style="fill:none;stroke:#b0b0b0;stroke-width:0.8;"/>
    <path d="M 152.813803 372.655895 
L 272.240379 262.699903 
L 274.454728 57.718876 
" style="fill:none;stroke:#b0b0b0;stroke-width:0.8;"/>
    <path d="M 178.543651 381.076452 
L 296.698434 269.930877 
L 300.185305 64.204042 
" style="fill:none;stroke:#b0b0b0;stroke-width:0.8;"/>
    <path d="M 204.563332 389.591863 
L 321.411638 277.237286 
L 326.198214 70.760368 
" style="fill:none;stroke:#b0b0b0;stroke-width:0.8;"/>
    <path d="M 230.877772 398.203739 
L 346.384003 284.620314 
L 352.498127 77.38903 
" style="fill:none;stroke:#b0b0b0;stroke-width:0.8;"/>
    <path d="M 257.492007 406.913728 
L 371.619627 292.081175 
L 379.089821 84.091234 
" style="fill:none;stroke:#b0b0b0;stroke-width:0.8;"/>
   </g>
   <g id="xtick_1">
    <g id="line2d_2">
     <path d="M 78.375702 347.030203 
L 75.191523 349.786274 
" style="fill:none;stroke:#000000;stroke-linecap:square;stroke-width:0.8;"/>
    </g>
    <g id="text_2">
     <!-- 0 -->
     <defs>
      <path d="M 31.78125 66.40625 
Q 24.171875 66.40625 20.328125 58.90625 
Q 16.5 51.421875 16.5 36.375 
Q 16.5 21.390625 20.328125 13.890625 
Q 24.171875 6.390625 31.78125 6.390625 
Q 39.453125 6.390625 43.28125 13.890625 
Q 47.125 21.390625 47.125 36.375 
Q 47.125 51.421875 43.28125 58.90625 
Q 39.453125 66.40625 31.78125 66.40625 
z
M 31.78125 74.21875 
Q 44.046875 74.21875 50.515625 64.515625 
Q 56.984375 54.828125 56.984375 36.375 
Q 56.984375 17.96875 50.515625 8.265625 
Q 44.046875 -1.421875 31.78125 -1.421875 
Q 19.53125 -1.421875 13.0625 8.265625 
Q 6.59375 17.96875 6.59375 36.375 
Q 6.59375 54.828125 13.0625 64.515625 
Q 19.53125 74.21875 31.78125 74.21875 
z
" id="DejaVuSans-48"/>
     </defs>
     <g transform="translate(67.750247 371.783651)scale(0.1 -0.1)">
      <use xlink:href="#DejaVuSans-48"/>
     </g>
    </g>
   </g>
   <g id="xtick_2">
    <g id="line2d_3">
     <path d="M 103.254832 355.165387 
L 100.099745 357.951913 
" style="fill:none;stroke:#000000;stroke-linecap:square;stroke-width:0.8;"/>
    </g>
    <g id="text_3">
     <!-- 50 -->
     <defs>
      <path d="M 10.796875 72.90625 
L 49.515625 72.90625 
L 49.515625 64.59375 
L 19.828125 64.59375 
L 19.828125 46.734375 
Q 21.96875 47.46875 24.109375 47.828125 
Q 26.265625 48.1875 28.421875 48.1875 
Q 40.625 48.1875 47.75 41.5 
Q 54.890625 34.8125 54.890625 23.390625 
Q 54.890625 11.625 47.5625 5.09375 
Q 40.234375 -1.421875 26.90625 -1.421875 
Q 22.3125 -1.421875 17.546875 -0.640625 
Q 12.796875 0.140625 7.71875 1.703125 
L 7.71875 11.625 
Q 12.109375 9.234375 16.796875 8.0625 
Q 21.484375 6.890625 26.703125 6.890625 
Q 35.15625 6.890625 40.078125 11.328125 
Q 45.015625 15.765625 45.015625 23.390625 
Q 45.015625 31 40.078125 35.4375 
Q 35.15625 39.890625 26.703125 39.890625 
Q 22.75 39.890625 18.8125 39.015625 
Q 14.890625 38.140625 10.796875 36.28125 
z
" id="DejaVuSans-53"/>
     </defs>
     <g transform="translate(89.455741 380.029368)scale(0.1 -0.1)">
      <use xlink:href="#DejaVuSans-53"/>
      <use x="63.623047" xlink:href="#DejaVuSans-48"/>
     </g>
    </g>
   </g>
   <g id="xtick_3">
    <g id="line2d_4">
     <path d="M 128.409382 363.39063 
L 125.284229 366.208119 
" style="fill:none;stroke:#000000;stroke-linecap:square;stroke-width:0.8;"/>
    </g>
    <g id="text_4">
     <!-- 100 -->
     <defs>
      <path d="M 12.40625 8.296875 
L 28.515625 8.296875 
L 28.515625 63.921875 
L 10.984375 60.40625 
L 10.984375 69.390625 
L 28.421875 72.90625 
L 38.28125 72.90625 
L 38.28125 8.296875 
L 54.390625 8.296875 
L 54.390625 0 
L 12.40625 0 
z
" id="DejaVuSans-49"/>
     </defs>
     <g transform="translate(111.437282 388.366549)scale(0.1 -0.1)">
      <use xlink:href="#DejaVuSans-49"/>
      <use x="63.623047" xlink:href="#DejaVuSans-48"/>
      <use x="127.246094" xlink:href="#DejaVuSans-48"/>
     </g>
    </g>
   </g>
   <g id="xtick_4">
    <g id="line2d_5">
     <path d="M 153.843952 371.707437 
L 150.749599 374.556407 
" style="fill:none;stroke:#000000;stroke-linecap:square;stroke-width:0.8;"/>
    </g>
    <g id="text_5">
     <!-- 150 -->
     <g transform="translate(136.880739 396.796722)scale(0.1 -0.1)">
      <use xlink:href="#DejaVuSans-49"/>
      <use x="63.623047" xlink:href="#DejaVuSans-53"/>
      <use x="127.246094" xlink:href="#DejaVuSans-48"/>
     </g>
    </g>
   </g>
   <g id="xtick_5">
    <g id="line2d_6">
     <path d="M 179.563244 380.117344 
L 176.500578 382.998326 
" style="fill:none;stroke:#000000;stroke-linecap:square;stroke-width:0.8;"/>
    </g>
    <g id="text_6">
     <!-- 200 -->
     <defs>
      <path d="M 19.1875 8.296875 
L 53.609375 8.296875 
L 53.609375 0 
L 7.328125 0 
L 7.328125 8.296875 
Q 12.9375 14.109375 22.625 23.890625 
Q 32.328125 33.6875 34.8125 36.53125 
Q 39.546875 41.84375 41.421875 45.53125 
Q 43.3125 49.21875 43.3125 52.78125 
Q 43.3125 58.59375 39.234375 62.25 
Q 35.15625 65.921875 28.609375 65.921875 
Q 23.96875 65.921875 18.8125 64.3125 
Q 13.671875 62.703125 7.8125 59.421875 
L 7.8125 69.390625 
Q 13.765625 71.78125 18.9375 73 
Q 24.125 74.21875 28.421875 74.21875 
Q 39.75 74.21875 46.484375 68.546875 
Q 53.21875 62.890625 53.21875 53.421875 
Q 53.21875 48.921875 51.53125 44.890625 
Q 49.859375 40.875 45.40625 35.40625 
Q 44.1875 33.984375 37.640625 27.21875 
Q 31.109375 20.453125 19.1875 8.296875 
z
" id="DejaVuSans-50"/>
     </defs>
     <g transform="translate(162.609583 405.321452)scale(0.1 -0.1)">
      <use xlink:href="#DejaVuSans-50"/>
      <use x="63.623047" xlink:href="#DejaVuSans-48"/>
      <use x="127.246094" xlink:href="#DejaVuSans-48"/>
     </g>
    </g>
   </g>
   <g id="xtick_6">
    <g id="line2d_7">
     <path d="M 205.572065 388.621924 
L 202.541999 391.53546 
" style="fill:none;stroke:#000000;stroke-linecap:square;stroke-width:0.8;"/>
    </g>
    <g id="text_7">
     <!-- 250 -->
     <g transform="translate(188.628644 413.94234)scale(0.1 -0.1)">
      <use xlink:href="#DejaVuSans-50"/>
      <use x="63.623047" xlink:href="#DejaVuSans-53"/>
      <use x="127.246094" xlink:href="#DejaVuSans-48"/>
     </g>
    </g>
   </g>
   <g id="xtick_7">
    <g id="line2d_8">
     <path d="M 231.875332 397.222785 
L 228.878804 400.16943 
" style="fill:none;stroke:#000000;stroke-linecap:square;stroke-width:0.8;"/>
    </g>
    <g id="text_8">
     <!-- 300 -->
     <defs>
      <path d="M 40.578125 39.3125 
Q 47.65625 37.796875 51.625 33 
Q 55.609375 28.21875 55.609375 21.1875 
Q 55.609375 10.40625 48.1875 4.484375 
Q 40.765625 -1.421875 27.09375 -1.421875 
Q 22.515625 -1.421875 17.65625 -0.515625 
Q 12.796875 0.390625 7.625 2.203125 
L 7.625 11.71875 
Q 11.71875 9.328125 16.59375 8.109375 
Q 21.484375 6.890625 26.8125 6.890625 
Q 36.078125 6.890625 40.9375 10.546875 
Q 45.796875 14.203125 45.796875 21.1875 
Q 45.796875 27.640625 41.28125 31.265625 
Q 36.765625 34.90625 28.71875 34.90625 
L 20.21875 34.90625 
L 20.21875 43.015625 
L 29.109375 43.015625 
Q 36.375 43.015625 40.234375 45.921875 
Q 44.09375 48.828125 44.09375 54.296875 
Q 44.09375 59.90625 40.109375 62.90625 
Q 36.140625 65.921875 28.71875 65.921875 
Q 24.65625 65.921875 20.015625 65.03125 
Q 15.375 64.15625 9.8125 62.3125 
L 9.8125 71.09375 
Q 15.4375 72.65625 20.34375 73.4375 
Q 25.25 74.21875 29.59375 74.21875 
Q 40.828125 74.21875 47.359375 69.109375 
Q 53.90625 64.015625 53.90625 55.328125 
Q 53.90625 49.265625 50.4375 45.09375 
Q 46.96875 40.921875 40.578125 39.3125 
z
" id="DejaVuSans-51"/>
     </defs>
     <g transform="translate(214.94286 422.661022)scale(0.1 -0.1)">
      <use xlink:href="#DejaVuSans-51"/>
      <use x="63.623047" xlink:href="#DejaVuSans-48"/>
      <use x="127.246094" xlink:href="#DejaVuSans-48"/>
     </g>
    </g>
   </g>
   <g id="xtick_8">
    <g id="line2d_9">
     <path d="M 258.478075 405.92157 
L 255.516048 408.901893 
" style="fill:none;stroke:#000000;stroke-linecap:square;stroke-width:0.8;"/>
    </g>
    <g id="text_9">
     <!-- 350 -->
     <g transform="translate(241.557282 431.47917)scale(0.1 -0.1)">
      <use xlink:href="#DejaVuSans-51"/>
      <use x="63.623047" xlink:href="#DejaVuSans-53"/>
      <use x="127.246094" xlink:href="#DejaVuSans-48"/>
     </g>
    </g>
   </g>
  </g>
  <g id="axis3d_2">
   <g id="line2d_10">
    <path d="M 388.395181 297.040834 
L 275.196469 412.707833 
" style="fill:none;stroke:#000000;stroke-linecap:square;stroke-width:0.8;"/>
   </g>
   <g id="text_10">
    <!-- S -->
    <defs>
     <path d="M 53.515625 70.515625 
L 53.515625 60.890625 
Q 47.90625 63.578125 42.921875 64.890625 
Q 37.9375 66.21875 33.296875 66.21875 
Q 25.25 66.21875 20.875 63.09375 
Q 16.5 59.96875 16.5 54.203125 
Q 16.5 49.359375 19.40625 46.890625 
Q 22.3125 44.4375 30.421875 42.921875 
L 36.375 41.703125 
Q 47.40625 39.59375 52.65625 34.296875 
Q 57.90625 29 57.90625 20.125 
Q 57.90625 9.515625 50.796875 4.046875 
Q 43.703125 -1.421875 29.984375 -1.421875 
Q 24.8125 -1.421875 18.96875 -0.25 
Q 13.140625 0.921875 6.890625 3.21875 
L 6.890625 13.375 
Q 12.890625 10.015625 18.65625 8.296875 
Q 24.421875 6.59375 29.984375 6.59375 
Q 38.421875 6.59375 43.015625 9.90625 
Q 47.609375 13.234375 47.609375 19.390625 
Q 47.609375 24.75 44.3125 27.78125 
Q 41.015625 30.8125 33.5 32.328125 
L 27.484375 33.5 
Q 16.453125 35.6875 11.515625 40.375 
Q 6.59375 45.0625 6.59375 53.421875 
Q 6.59375 63.09375 13.40625 68.65625 
Q 20.21875 74.21875 32.171875 74.21875 
Q 37.3125 74.21875 42.625 73.28125 
Q 47.953125 72.359375 53.515625 70.515625 
z
" id="DejaVuSans-83"/>
    </defs>
    <g transform="translate(354.050506 385.312791)scale(0.1 -0.1)">
     <use xlink:href="#DejaVuSans-83"/>
    </g>
   </g>
   <g id="Line3DCollection_2">
    <path d="M 83.192224 110.424381 
L 90.602388 321.355471 
L 299.186796 388.194399 
" style="fill:none;stroke:#b0b0b0;stroke-width:0.8;"/>
    <path d="M 108.017944 92.325615 
L 114.081593 301.242041 
L 320.710982 366.20088 
" style="fill:none;stroke:#b0b0b0;stroke-width:0.8;"/>
    <path d="M 132.1301 74.747061 
L 136.919286 281.67816 
L 341.620779 344.835147 
" style="fill:none;stroke:#b0b0b0;stroke-width:0.8;"/>
    <path d="M 155.559018 57.666608 
L 159.141407 262.641609 
L 361.942121 324.0707 
" style="fill:none;stroke:#b0b0b0;stroke-width:0.8;"/>
    <path d="M 178.333335 41.063382 
L 180.772511 244.111352 
L 381.699505 303.882508 
" style="fill:none;stroke:#b0b0b0;stroke-width:0.8;"/>
   </g>
   <g id="xtick_9">
    <g id="line2d_11">
     <path d="M 297.44196 387.635283 
L 302.680326 389.313868 
" style="fill:none;stroke:#000000;stroke-linecap:square;stroke-width:0.8;"/>
    </g>
    <g id="text_11">
     <!-- 20 -->
     <g transform="translate(303.781424 409.883755)scale(0.1 -0.1)">
      <use xlink:href="#DejaVuSans-50"/>
      <use x="63.623047" xlink:href="#DejaVuSans-48"/>
     </g>
    </g>
   </g>
   <g id="xtick_10">
    <g id="line2d_12">
     <path d="M 318.983592 365.657834 
L 324.169526 367.288155 
" style="fill:none;stroke:#000000;stroke-linecap:square;stroke-width:0.8;"/>
    </g>
    <g id="text_12">
     <!-- 40 -->
     <defs>
      <path d="M 37.796875 64.3125 
L 12.890625 25.390625 
L 37.796875 25.390625 
z
M 35.203125 72.90625 
L 47.609375 72.90625 
L 47.609375 25.390625 
L 58.015625 25.390625 
L 58.015625 17.1875 
L 47.609375 17.1875 
L 47.609375 0 
L 37.796875 0 
L 37.796875 17.1875 
L 4.890625 17.1875 
L 4.890625 26.703125 
z
" id="DejaVuSans-52"/>
     </defs>
     <g transform="translate(325.139305 387.694175)scale(0.1 -0.1)">
      <use xlink:href="#DejaVuSans-52"/>
      <use x="63.623047" xlink:href="#DejaVuSans-48"/>
     </g>
    </g>
   </g>
   <g id="xtick_11">
    <g id="line2d_13">
     <path d="M 339.910557 344.307489 
L 345.044896 345.891598 
" style="fill:none;stroke:#000000;stroke-linecap:square;stroke-width:0.8;"/>
    </g>
    <g id="text_13">
     <!-- 60 -->
     <defs>
      <path d="M 33.015625 40.375 
Q 26.375 40.375 22.484375 35.828125 
Q 18.609375 31.296875 18.609375 23.390625 
Q 18.609375 15.53125 22.484375 10.953125 
Q 26.375 6.390625 33.015625 6.390625 
Q 39.65625 6.390625 43.53125 10.953125 
Q 47.40625 15.53125 47.40625 23.390625 
Q 47.40625 31.296875 43.53125 35.828125 
Q 39.65625 40.375 33.015625 40.375 
z
M 52.59375 71.296875 
L 52.59375 62.3125 
Q 48.875 64.0625 45.09375 64.984375 
Q 41.3125 65.921875 37.59375 65.921875 
Q 27.828125 65.921875 22.671875 59.328125 
Q 17.53125 52.734375 16.796875 39.40625 
Q 19.671875 43.65625 24.015625 45.921875 
Q 28.375 48.1875 33.59375 48.1875 
Q 44.578125 48.1875 50.953125 41.515625 
Q 57.328125 34.859375 57.328125 23.390625 
Q 57.328125 12.15625 50.6875 5.359375 
Q 44.046875 -1.421875 33.015625 -1.421875 
Q 20.359375 -1.421875 13.671875 8.265625 
Q 6.984375 17.96875 6.984375 36.375 
Q 6.984375 53.65625 15.1875 63.9375 
Q 23.390625 74.21875 37.203125 74.21875 
Q 40.921875 74.21875 44.703125 73.484375 
Q 48.484375 72.75 52.59375 71.296875 
z
" id="DejaVuSans-54"/>
     </defs>
     <g transform="translate(345.887759 366.137755)scale(0.1 -0.1)">
      <use xlink:href="#DejaVuSans-54"/>
      <use x="63.623047" xlink:href="#DejaVuSans-48"/>
     </g>
    </g>
   </g>
   <g id="xtick_12">
    <g id="line2d_14">
     <path d="M 360.248791 323.557784 
L 365.332367 325.097618 
" style="fill:none;stroke:#000000;stroke-linecap:square;stroke-width:0.8;"/>
    </g>
    <g id="text_14">
     <!-- 80 -->
     <defs>
      <path d="M 31.78125 34.625 
Q 24.75 34.625 20.71875 30.859375 
Q 16.703125 27.09375 16.703125 20.515625 
Q 16.703125 13.921875 20.71875 10.15625 
Q 24.75 6.390625 31.78125 6.390625 
Q 38.8125 6.390625 42.859375 10.171875 
Q 46.921875 13.96875 46.921875 20.515625 
Q 46.921875 27.09375 42.890625 30.859375 
Q 38.875 34.625 31.78125 34.625 
z
M 21.921875 38.8125 
Q 15.578125 40.375 12.03125 44.71875 
Q 8.5 49.078125 8.5 55.328125 
Q 8.5 64.0625 14.71875 69.140625 
Q 20.953125 74.21875 31.78125 74.21875 
Q 42.671875 74.21875 48.875 69.140625 
Q 55.078125 64.0625 55.078125 55.328125 
Q 55.078125 49.078125 51.53125 44.71875 
Q 48 40.375 41.703125 38.8125 
Q 48.828125 37.15625 52.796875 32.3125 
Q 56.78125 27.484375 56.78125 20.515625 
Q 56.78125 9.90625 50.3125 4.234375 
Q 43.84375 -1.421875 31.78125 -1.421875 
Q 19.734375 -1.421875 13.25 4.234375 
Q 6.78125 9.90625 6.78125 20.515625 
Q 6.78125 27.484375 10.78125 32.3125 
Q 14.796875 37.15625 21.921875 38.8125 
z
M 18.3125 54.390625 
Q 18.3125 48.734375 21.84375 45.5625 
Q 25.390625 42.390625 31.78125 42.390625 
Q 38.140625 42.390625 41.71875 45.5625 
Q 45.3125 48.734375 45.3125 54.390625 
Q 45.3125 60.0625 41.71875 63.234375 
Q 38.140625 66.40625 31.78125 66.40625 
Q 25.390625 66.40625 21.84375 63.234375 
Q 18.3125 60.0625 18.3125 54.390625 
z
" id="DejaVuSans-56"/>
     </defs>
     <g transform="translate(366.052502 345.187776)scale(0.1 -0.1)">
      <use xlink:href="#DejaVuSans-56"/>
      <use x="63.623047" xlink:href="#DejaVuSans-48"/>
     </g>
    </g>
   </g>
   <g id="xtick_13">
    <g id="line2d_15">
     <path d="M 380.022795 303.383726 
L 385.056427 304.881115 
" style="fill:none;stroke:#000000;stroke-linecap:square;stroke-width:0.8;"/>
    </g>
    <g id="text_15">
     <!-- 100 -->
     <g transform="translate(382.476576 324.819)scale(0.1 -0.1)">
      <use xlink:href="#DejaVuSans-49"/>
      <use x="63.623047" xlink:href="#DejaVuSans-48"/>
      <use x="127.246094" xlink:href="#DejaVuSans-48"/>
     </g>
    </g>
   </g>
  </g>
  <g id="axis3d_3">
   <g id="line2d_16">
    <path d="M 388.395181 297.040834 
L 396.774918 88.548607 
" style="fill:none;stroke:#000000;stroke-linecap:square;stroke-width:0.8;"/>
   </g>
   <g id="text_16">
    <!-- V -->
    <defs>
     <path d="M 28.609375 0 
L 0.78125 72.90625 
L 11.078125 72.90625 
L 34.1875 11.53125 
L 57.328125 72.90625 
L 67.578125 72.90625 
L 39.796875 0 
z
" id="DejaVuSans-86"/>
    </defs>
    <g transform="translate(424.65898 193.455039)scale(0.1 -0.1)">
     <use xlink:href="#DejaVuSans-86"/>
    </g>
   </g>
   <g id="Line3DCollection_3">
    <path d="M 389.259426 275.537981 
L 187.896219 216.912375 
L 63.546408 321.794734 
" style="fill:none;stroke:#b0b0b0;stroke-width:0.8;"/>
    <path d="M 390.222927 251.565569 
L 187.659184 193.607264 
L 62.51828 297.316322 
" style="fill:none;stroke:#b0b0b0;stroke-width:0.8;"/>
    <path d="M 391.198086 227.303095 
L 187.419402 170.032056 
L 61.477298 272.531861 
" style="fill:none;stroke:#b0b0b0;stroke-width:0.8;"/>
    <path d="M 392.185116 202.74526 
L 187.176826 146.182027 
L 60.423219 247.435574 
" style="fill:none;stroke:#b0b0b0;stroke-width:0.8;"/>
    <path d="M 393.184236 177.88664 
L 186.931404 122.052344 
L 59.355794 222.021541 
" style="fill:none;stroke:#b0b0b0;stroke-width:0.8;"/>
    <path d="M 394.195669 152.721673 
L 186.683089 97.638059 
L 58.274767 196.283687 
" style="fill:none;stroke:#b0b0b0;stroke-width:0.8;"/>
    <path d="M 395.219643 127.244662 
L 186.431827 72.934107 
L 57.179879 170.215784 
" style="fill:none;stroke:#b0b0b0;stroke-width:0.8;"/>
    <path d="M 396.256393 101.449767 
L 186.177566 47.935303 
L 56.070859 143.811443 
" style="fill:none;stroke:#b0b0b0;stroke-width:0.8;"/>
   </g>
   <g id="xtick_14">
    <g id="line2d_17">
     <path d="M 387.579032 275.048745 
L 392.623724 276.517475 
" style="fill:none;stroke:#000000;stroke-linecap:square;stroke-width:0.8;"/>
    </g>
    <g id="text_17">
     <!-- 30 -->
     <g transform="translate(398.988172 280.851189)scale(0.1 -0.1)">
      <use xlink:href="#DejaVuSans-51"/>
      <use x="63.623047" xlink:href="#DejaVuSans-48"/>
     </g>
    </g>
   </g>
   <g id="xtick_15">
    <g id="line2d_18">
     <path d="M 388.532094 251.081782 
L 393.608146 252.534161 
" style="fill:none;stroke:#000000;stroke-linecap:square;stroke-width:0.8;"/>
    </g>
    <g id="text_18">
     <!-- 40 -->
     <g transform="translate(400.046706 256.904245)scale(0.1 -0.1)">
      <use xlink:href="#DejaVuSans-52"/>
      <use x="63.623047" xlink:href="#DejaVuSans-48"/>
     </g>
    </g>
   </g>
   <g id="xtick_16">
    <g id="line2d_19">
     <path d="M 389.496684 226.824924 
L 394.604488 228.260448 
" style="fill:none;stroke:#000000;stroke-linecap:square;stroke-width:0.8;"/>
    </g>
    <g id="text_19">
     <!-- 50 -->
     <g transform="translate(401.118026 232.668022)scale(0.1 -0.1)">
      <use xlink:href="#DejaVuSans-53"/>
      <use x="63.623047" xlink:href="#DejaVuSans-48"/>
     </g>
    </g>
   </g>
   <g id="xtick_17">
    <g id="line2d_20">
     <path d="M 390.473013 202.272879 
L 395.612967 203.691028 
" style="fill:none;stroke:#000000;stroke-linecap:square;stroke-width:0.8;"/>
    </g>
    <g id="text_20">
     <!-- 60 -->
     <g transform="translate(402.202367 208.137247)scale(0.1 -0.1)">
      <use xlink:href="#DejaVuSans-54"/>
      <use x="63.623047" xlink:href="#DejaVuSans-48"/>
     </g>
    </g>
   </g>
   <g id="xtick_18">
    <g id="line2d_21">
     <path d="M 391.461295 177.420226 
L 396.633807 178.820466 
" style="fill:none;stroke:#000000;stroke-linecap:square;stroke-width:0.8;"/>
    </g>
    <g id="text_21">
     <!-- 70 -->
     <defs>
      <path d="M 8.203125 72.90625 
L 55.078125 72.90625 
L 55.078125 68.703125 
L 28.609375 0 
L 18.3125 0 
L 43.21875 64.59375 
L 8.203125 64.59375 
z
" id="DejaVuSans-55"/>
     </defs>
     <g transform="translate(403.299967 183.306518)scale(0.1 -0.1)">
      <use xlink:href="#DejaVuSans-55"/>
      <use x="63.623047" xlink:href="#DejaVuSans-48"/>
     </g>
    </g>
   </g>
   <g id="xtick_19">
    <g id="line2d_22">
     <path d="M 392.461752 152.26141 
L 397.667236 153.643191 
" style="fill:none;stroke:#000000;stroke-linecap:square;stroke-width:0.8;"/>
    </g>
    <g id="text_22">
     <!-- 80 -->
     <g transform="translate(404.41107 158.170299)scale(0.1 -0.1)">
      <use xlink:href="#DejaVuSans-56"/>
      <use x="63.623047" xlink:href="#DejaVuSans-48"/>
     </g>
    </g>
   </g>
   <g id="xtick_20">
    <g id="line2d_23">
     <path d="M 393.47461 126.790739 
L 398.713489 128.153493 
" style="fill:none;stroke:#000000;stroke-linecap:square;stroke-width:0.8;"/>
    </g>
    <g id="text_23">
     <!-- 90 -->
     <defs>
      <path d="M 10.984375 1.515625 
L 10.984375 10.5 
Q 14.703125 8.734375 18.5 7.8125 
Q 22.3125 6.890625 25.984375 6.890625 
Q 35.75 6.890625 40.890625 13.453125 
Q 46.046875 20.015625 46.78125 33.40625 
Q 43.953125 29.203125 39.59375 26.953125 
Q 35.25 24.703125 29.984375 24.703125 
Q 19.046875 24.703125 12.671875 31.3125 
Q 6.296875 37.9375 6.296875 49.421875 
Q 6.296875 60.640625 12.9375 67.421875 
Q 19.578125 74.21875 30.609375 74.21875 
Q 43.265625 74.21875 49.921875 64.515625 
Q 56.59375 54.828125 56.59375 36.375 
Q 56.59375 19.140625 48.40625 8.859375 
Q 40.234375 -1.421875 26.421875 -1.421875 
Q 22.703125 -1.421875 18.890625 -0.6875 
Q 15.09375 0.046875 10.984375 1.515625 
z
M 30.609375 32.421875 
Q 37.25 32.421875 41.125 36.953125 
Q 45.015625 41.5 45.015625 49.421875 
Q 45.015625 57.28125 41.125 61.84375 
Q 37.25 66.40625 30.609375 66.40625 
Q 23.96875 66.40625 20.09375 61.84375 
Q 16.21875 57.28125 16.21875 49.421875 
Q 16.21875 41.5 20.09375 36.953125 
Q 23.96875 32.421875 30.609375 32.421875 
z
" id="DejaVuSans-57"/>
     </defs>
     <g transform="translate(405.535928 132.722917)scale(0.1 -0.1)">
      <use xlink:href="#DejaVuSans-57"/>
      <use x="63.623047" xlink:href="#DejaVuSans-48"/>
     </g>
    </g>
   </g>
   <g id="xtick_21">
    <g id="line2d_24">
     <path d="M 394.500102 101.002378 
L 399.772806 102.345521 
" style="fill:none;stroke:#000000;stroke-linecap:square;stroke-width:0.8;"/>
    </g>
    <g id="text_24">
     <!-- 100 -->
     <g transform="translate(403.493547 106.958559)scale(0.1 -0.1)">
      <use xlink:href="#DejaVuSans-49"/>
      <use x="63.623047" xlink:href="#DejaVuSans-48"/>
      <use x="127.246094" xlink:href="#DejaVuSans-48"/>
     </g>
    </g>
   </g>
  </g>
  <g id="axes_1">
   <g id="Path3DCollection_1">
    <defs>
     <path d="M 0 3.162278 
C 0.838646 3.162278 1.643056 2.82908 2.236068 2.236068 
C 2.82908 1.643056 3.162278 0.838646 3.162278 0 
C 3.162278 -0.838646 2.82908 -1.643056 2.236068 -2.236068 
C 1.643056 -2.82908 0.838646 -3.162278 0 -3.162278 
C -0.838646 -3.162278 -1.643056 -2.82908 -2.236068 -2.236068 
C -2.82908 -1.643056 -3.162278 -0.838646 -3.162278 0 
C -3.162278 0.838646 -2.82908 1.643056 -2.236068 2.236068 
C -1.643056 2.82908 -0.838646 3.162278 0 3.162278 
z
" id="C0_0_da519e3fd1"/>
    </defs>
    <g clip-path="url(#p5e26a68c34)">
     <use style="fill:#f77189;stroke:#f77189;" x="117.545602" xlink:href="#C0_0_da519e3fd1" y="133.207295"/>
    </g>
    <g clip-path="url(#p5e26a68c34)">
     <use style="fill:#f77189;stroke:#f77189;" x="140.184938" xlink:href="#C0_0_da519e3fd1" y="114.716152"/>
    </g>
    <g clip-path="url(#p5e26a68c34)">
     <use style="fill:#f77189;stroke:#f77189;" x="145.9002" xlink:href="#C0_0_da519e3fd1" y="122.855663"/>
    </g>
    <g clip-path="url(#p5e26a68c34)">
     <use style="fill:#f77189;stroke:#f77189;" x="168.918386" xlink:href="#C0_0_da519e3fd1" y="136.492493"/>
    </g>
    <g clip-path="url(#p5e26a68c34)">
     <use style="fill:#f77189;stroke:#f77189;" x="170.904831" xlink:href="#C0_0_da519e3fd1" y="184.241315"/>
    </g>
    <g clip-path="url(#p5e26a68c34)">
     <use style="fill:#f77189;stroke:#f77189;" x="230.337211" xlink:href="#C0_0_da519e3fd1" y="179.967285"/>
    </g>
    <g clip-path="url(#p5e26a68c34)">
     <use style="fill:#f77189;stroke:#f77189;" x="238.181454" xlink:href="#C0_0_da519e3fd1" y="150.940735"/>
    </g>
    <g clip-path="url(#p5e26a68c34)">
     <use style="fill:#f77189;stroke:#f77189;" x="220.784774" xlink:href="#C0_0_da519e3fd1" y="175.84214"/>
    </g>
    <g clip-path="url(#p5e26a68c34)">
     <use style="fill:#f77189;stroke:#f77189;" x="232.552828" xlink:href="#C0_0_da519e3fd1" y="208.608698"/>
    </g>
    <g clip-path="url(#p5e26a68c34)">
     <use style="fill:#f77189;stroke:#f77189;" x="284.165461" xlink:href="#C0_0_da519e3fd1" y="180.9447"/>
    </g>
    <g clip-path="url(#p5e26a68c34)">
     <use style="fill:#f77189;stroke:#f77189;" x="123.589807" xlink:href="#C0_0_da519e3fd1" y="118.795061"/>
    </g>
    <g clip-path="url(#p5e26a68c34)">
     <use style="fill:#f77189;stroke:#f77189;" x="173.268913" xlink:href="#C0_0_da519e3fd1" y="93.279769"/>
    </g>
    <g clip-path="url(#p5e26a68c34)">
     <use style="fill:#f77189;stroke:#f77189;" x="193.193414" xlink:href="#C0_0_da519e3fd1" y="91.871224"/>
    </g>
    <g clip-path="url(#p5e26a68c34)">
     <use style="fill:#f77189;stroke:#f77189;" x="183.494211" xlink:href="#C0_0_da519e3fd1" y="149.902348"/>
    </g>
    <g clip-path="url(#p5e26a68c34)">
     <use style="fill:#f77189;stroke:#f77189;" x="216.644351" xlink:href="#C0_0_da519e3fd1" y="195.804307"/>
    </g>
    <g clip-path="url(#p5e26a68c34)">
     <use style="fill:#f77189;stroke:#f77189;" x="252.838983" xlink:href="#C0_0_da519e3fd1" y="171.655194"/>
    </g>
    <g clip-path="url(#p5e26a68c34)">
     <use style="fill:#f77189;stroke:#f77189;" x="274.869607" xlink:href="#C0_0_da519e3fd1" y="130.772768"/>
    </g>
    <g clip-path="url(#p5e26a68c34)">
     <use style="fill:#f77189;stroke:#f77189;" x="250.958176" xlink:href="#C0_0_da519e3fd1" y="155.968456"/>
    </g>
    <g clip-path="url(#p5e26a68c34)">
     <use style="fill:#f77189;stroke:#f77189;" x="238.231014" xlink:href="#C0_0_da519e3fd1" y="230.236974"/>
    </g>
    <g clip-path="url(#p5e26a68c34)">
     <use style="fill:#f77189;stroke:#f77189;" x="309.974854" xlink:href="#C0_0_da519e3fd1" y="168.001987"/>
    </g>
    <g clip-path="url(#p5e26a68c34)">
     <use style="fill:#f77189;stroke:#f77189;" x="354.661385" xlink:href="#C0_0_da519e3fd1" y="166.647138"/>
    </g>
    <g clip-path="url(#p5e26a68c34)">
     <use style="fill:#f77189;stroke:#f77189;" x="179.988379" xlink:href="#C0_0_da519e3fd1" y="91.003564"/>
    </g>
    <g clip-path="url(#p5e26a68c34)">
     <use style="fill:#f77189;stroke:#f77189;" x="184.73559" xlink:href="#C0_0_da519e3fd1" y="85.865834"/>
    </g>
    <g clip-path="url(#p5e26a68c34)">
     <use style="fill:#f77189;stroke:#f77189;" x="198.243868" xlink:href="#C0_0_da519e3fd1" y="194.640782"/>
    </g>
    <g clip-path="url(#p5e26a68c34)">
     <use style="fill:#f77189;stroke:#f77189;" x="266.967632" xlink:href="#C0_0_da519e3fd1" y="199.278259"/>
    </g>
    <g clip-path="url(#p5e26a68c34)">
     <use style="fill:#f77189;stroke:#f77189;" x="277.825048" xlink:href="#C0_0_da519e3fd1" y="181.35406"/>
    </g>
    <g clip-path="url(#p5e26a68c34)">
     <use style="fill:#f77189;stroke:#f77189;" x="288.117532" xlink:href="#C0_0_da519e3fd1" y="148.320423"/>
    </g>
    <g clip-path="url(#p5e26a68c34)">
     <use style="fill:#f77189;stroke:#f77189;" x="282.86055" xlink:href="#C0_0_da519e3fd1" y="169.81628"/>
    </g>
    <g clip-path="url(#p5e26a68c34)">
     <use style="fill:#f77189;stroke:#f77189;" x="259.029818" xlink:href="#C0_0_da519e3fd1" y="270.000087"/>
    </g>
    <g clip-path="url(#p5e26a68c34)">
     <use style="fill:#f77189;stroke:#f77189;" x="342.198329" xlink:href="#C0_0_da519e3fd1" y="145.339624"/>
    </g>
    <g clip-path="url(#p5e26a68c34)">
     <use style="fill:#50b131;stroke:#50b131;" x="96.709602" xlink:href="#C0_0_da519e3fd1" y="136.572581"/>
    </g>
    <g clip-path="url(#p5e26a68c34)">
     <use style="fill:#50b131;stroke:#50b131;" x="120.122538" xlink:href="#C0_0_da519e3fd1" y="140.032454"/>
    </g>
    <g clip-path="url(#p5e26a68c34)">
     <use style="fill:#50b131;stroke:#50b131;" x="124.602283" xlink:href="#C0_0_da519e3fd1" y="141.01295"/>
    </g>
    <g clip-path="url(#p5e26a68c34)">
     <use style="fill:#50b131;stroke:#50b131;" x="135.207275" xlink:href="#C0_0_da519e3fd1" y="161.604511"/>
    </g>
    <g clip-path="url(#p5e26a68c34)">
     <use style="fill:#50b131;stroke:#50b131;" x="140.482768" xlink:href="#C0_0_da519e3fd1" y="171.554976"/>
    </g>
    <g clip-path="url(#p5e26a68c34)">
     <use style="fill:#50b131;stroke:#50b131;" x="179.660255" xlink:href="#C0_0_da519e3fd1" y="184.911395"/>
    </g>
    <g clip-path="url(#p5e26a68c34)">
     <use style="fill:#50b131;stroke:#50b131;" x="195.909747" xlink:href="#C0_0_da519e3fd1" y="177.292154"/>
    </g>
    <g clip-path="url(#p5e26a68c34)">
     <use style="fill:#50b131;stroke:#50b131;" x="196.383794" xlink:href="#C0_0_da519e3fd1" y="194.472281"/>
    </g>
    <g clip-path="url(#p5e26a68c34)">
     <use style="fill:#50b131;stroke:#50b131;" x="225.474685" xlink:href="#C0_0_da519e3fd1" y="211.971561"/>
    </g>
    <g clip-path="url(#p5e26a68c34)">
     <use style="fill:#50b131;stroke:#50b131;" x="276.696565" xlink:href="#C0_0_da519e3fd1" y="192.653762"/>
    </g>
    <g clip-path="url(#p5e26a68c34)">
     <use style="fill:#50b131;stroke:#50b131;" x="106.8525" xlink:href="#C0_0_da519e3fd1" y="147.235675"/>
    </g>
    <g clip-path="url(#p5e26a68c34)">
     <use style="fill:#50b131;stroke:#50b131;" x="127.81094" xlink:href="#C0_0_da519e3fd1" y="132.190203"/>
    </g>
    <g clip-path="url(#p5e26a68c34)">
     <use style="fill:#50b131;stroke:#50b131;" x="143.046807" xlink:href="#C0_0_da519e3fd1" y="139.245574"/>
    </g>
    <g clip-path="url(#p5e26a68c34)">
     <use style="fill:#50b131;stroke:#50b131;" x="148.894102" xlink:href="#C0_0_da519e3fd1" y="162.415653"/>
    </g>
    <g clip-path="url(#p5e26a68c34)">
     <use style="fill:#50b131;stroke:#50b131;" x="180.470595" xlink:href="#C0_0_da519e3fd1" y="187.672796"/>
    </g>
    <g clip-path="url(#p5e26a68c34)">
     <use style="fill:#50b131;stroke:#50b131;" x="210.186173" xlink:href="#C0_0_da519e3fd1" y="189.97975"/>
    </g>
    <g clip-path="url(#p5e26a68c34)">
     <use style="fill:#50b131;stroke:#50b131;" x="204.254072" xlink:href="#C0_0_da519e3fd1" y="197.207451"/>
    </g>
    <g clip-path="url(#p5e26a68c34)">
     <use style="fill:#50b131;stroke:#50b131;" x="208.624559" xlink:href="#C0_0_da519e3fd1" y="181.416554"/>
    </g>
    <g clip-path="url(#p5e26a68c34)">
     <use style="fill:#50b131;stroke:#50b131;" x="241.129647" xlink:href="#C0_0_da519e3fd1" y="228.67193"/>
    </g>
    <g clip-path="url(#p5e26a68c34)">
     <use style="fill:#50b131;stroke:#50b131;" x="270.147335" xlink:href="#C0_0_da519e3fd1" y="223.580328"/>
    </g>
    <g clip-path="url(#p5e26a68c34)">
     <use style="fill:#50b131;stroke:#50b131;" x="117.300847" xlink:href="#C0_0_da519e3fd1" y="147.654476"/>
    </g>
    <g clip-path="url(#p5e26a68c34)">
     <use style="fill:#50b131;stroke:#50b131;" x="163.747556" xlink:href="#C0_0_da519e3fd1" y="120.835773"/>
    </g>
    <g clip-path="url(#p5e26a68c34)">
     <use style="fill:#50b131;stroke:#50b131;" x="150.663747" xlink:href="#C0_0_da519e3fd1" y="167.606772"/>
    </g>
    <g clip-path="url(#p5e26a68c34)">
     <use style="fill:#50b131;stroke:#50b131;" x="155.00277" xlink:href="#C0_0_da519e3fd1" y="193.056459"/>
    </g>
    <g clip-path="url(#p5e26a68c34)">
     <use style="fill:#50b131;stroke:#50b131;" x="197.611115" xlink:href="#C0_0_da519e3fd1" y="187.83506"/>
    </g>
    <g clip-path="url(#p5e26a68c34)">
     <use style="fill:#50b131;stroke:#50b131;" x="211.13673" xlink:href="#C0_0_da519e3fd1" y="212.22336"/>
    </g>
    <g clip-path="url(#p5e26a68c34)">
     <use style="fill:#50b131;stroke:#50b131;" x="250.191055" xlink:href="#C0_0_da519e3fd1" y="155.802221"/>
    </g>
    <g clip-path="url(#p5e26a68c34)">
     <use style="fill:#50b131;stroke:#50b131;" x="225.558424" xlink:href="#C0_0_da519e3fd1" y="194.703384"/>
    </g>
    <g clip-path="url(#p5e26a68c34)">
     <use style="fill:#50b131;stroke:#50b131;" x="266.344002" xlink:href="#C0_0_da519e3fd1" y="247.001866"/>
    </g>
    <g clip-path="url(#p5e26a68c34)">
     <use style="fill:#50b131;stroke:#50b131;" x="284.334106" xlink:href="#C0_0_da519e3fd1" y="218.313858"/>
    </g>
    <g clip-path="url(#p5e26a68c34)">
     <use style="fill:#3ba3ec;stroke:#3ba3ec;" x="125.240438" xlink:href="#C0_0_da519e3fd1" y="122.940748"/>
    </g>
    <g clip-path="url(#p5e26a68c34)">
     <use style="fill:#3ba3ec;stroke:#3ba3ec;" x="159.258104" xlink:href="#C0_0_da519e3fd1" y="115.627673"/>
    </g>
    <g clip-path="url(#p5e26a68c34)">
     <use style="fill:#3ba3ec;stroke:#3ba3ec;" x="158.102595" xlink:href="#C0_0_da519e3fd1" y="148.701724"/>
    </g>
    <g clip-path="url(#p5e26a68c34)">
     <use style="fill:#3ba3ec;stroke:#3ba3ec;" x="156.860711" xlink:href="#C0_0_da519e3fd1" y="217.553995"/>
    </g>
    <g clip-path="url(#p5e26a68c34)">
     <use style="fill:#3ba3ec;stroke:#3ba3ec;" x="181.557312" xlink:href="#C0_0_da519e3fd1" y="227.565561"/>
    </g>
    <g clip-path="url(#p5e26a68c34)">
     <use style="fill:#3ba3ec;stroke:#3ba3ec;" x="213.826952" xlink:href="#C0_0_da519e3fd1" y="217.200517"/>
    </g>
    <g clip-path="url(#p5e26a68c34)">
     <use style="fill:#3ba3ec;stroke:#3ba3ec;" x="216.155027" xlink:href="#C0_0_da519e3fd1" y="226.90299"/>
    </g>
    <g clip-path="url(#p5e26a68c34)">
     <use style="fill:#3ba3ec;stroke:#3ba3ec;" x="216.751966" xlink:href="#C0_0_da519e3fd1" y="224.193778"/>
    </g>
    <g clip-path="url(#p5e26a68c34)">
     <use style="fill:#3ba3ec;stroke:#3ba3ec;" x="239.781618" xlink:href="#C0_0_da519e3fd1" y="253.256463"/>
    </g>
    <g clip-path="url(#p5e26a68c34)">
     <use style="fill:#3ba3ec;stroke:#3ba3ec;" x="287.373757" xlink:href="#C0_0_da519e3fd1" y="235.115608"/>
    </g>
    <g clip-path="url(#p5e26a68c34)">
     <use style="fill:#3ba3ec;stroke:#3ba3ec;" x="118.47607" xlink:href="#C0_0_da519e3fd1" y="181.041468"/>
    </g>
    <g clip-path="url(#p5e26a68c34)">
     <use style="fill:#3ba3ec;stroke:#3ba3ec;" x="129.056424" xlink:href="#C0_0_da519e3fd1" y="201.511816"/>
    </g>
    <g clip-path="url(#p5e26a68c34)">
     <use style="fill:#3ba3ec;stroke:#3ba3ec;" x="141.618962" xlink:href="#C0_0_da519e3fd1" y="219.180094"/>
    </g>
    <g clip-path="url(#p5e26a68c34)">
     <use style="fill:#3ba3ec;stroke:#3ba3ec;" x="159.856021" xlink:href="#C0_0_da519e3fd1" y="233.972565"/>
    </g>
    <g clip-path="url(#p5e26a68c34)">
     <use style="fill:#3ba3ec;stroke:#3ba3ec;" x="186.217905" xlink:href="#C0_0_da519e3fd1" y="268.085262"/>
    </g>
    <g clip-path="url(#p5e26a68c34)">
     <use style="fill:#3ba3ec;stroke:#3ba3ec;" x="233.074588" xlink:href="#C0_0_da519e3fd1" y="248.313769"/>
    </g>
    <g clip-path="url(#p5e26a68c34)">
     <use style="fill:#3ba3ec;stroke:#3ba3ec;" x="237.856983" xlink:href="#C0_0_da519e3fd1" y="236.319383"/>
    </g>
    <g clip-path="url(#p5e26a68c34)">
     <use style="fill:#3ba3ec;stroke:#3ba3ec;" x="228.209727" xlink:href="#C0_0_da519e3fd1" y="258.365775"/>
    </g>
    <g clip-path="url(#p5e26a68c34)">
     <use style="fill:#3ba3ec;stroke:#3ba3ec;" x="229.360121" xlink:href="#C0_0_da519e3fd1" y="238.700554"/>
    </g>
    <g clip-path="url(#p5e26a68c34)">
     <use style="fill:#3ba3ec;stroke:#3ba3ec;" x="290.74904" xlink:href="#C0_0_da519e3fd1" y="268.081931"/>
    </g>
    <g clip-path="url(#p5e26a68c34)">
     <use style="fill:#3ba3ec;stroke:#3ba3ec;" x="328.239374" xlink:href="#C0_0_da519e3fd1" y="268.638018"/>
    </g>
    <g clip-path="url(#p5e26a68c34)">
     <use style="fill:#3ba3ec;stroke:#3ba3ec;" x="154.437357" xlink:href="#C0_0_da519e3fd1" y="219.60928"/>
    </g>
    <g clip-path="url(#p5e26a68c34)">
     <use style="fill:#3ba3ec;stroke:#3ba3ec;" x="136.620608" xlink:href="#C0_0_da519e3fd1" y="265.120015"/>
    </g>
    <g clip-path="url(#p5e26a68c34)">
     <use style="fill:#3ba3ec;stroke:#3ba3ec;" x="162.491451" xlink:href="#C0_0_da519e3fd1" y="292.380756"/>
    </g>
    <g clip-path="url(#p5e26a68c34)">
     <use style="fill:#3ba3ec;stroke:#3ba3ec;" x="262.984244" xlink:href="#C0_0_da519e3fd1" y="225.031142"/>
    </g>
    <g clip-path="url(#p5e26a68c34)">
     <use style="fill:#3ba3ec;stroke:#3ba3ec;" x="269.649359" xlink:href="#C0_0_da519e3fd1" y="239.434341"/>
    </g>
    <g clip-path="url(#p5e26a68c34)">
     <use style="fill:#3ba3ec;stroke:#3ba3ec;" x="282.92251" xlink:href="#C0_0_da519e3fd1" y="199.96774"/>
    </g>
    <g clip-path="url(#p5e26a68c34)">
     <use style="fill:#3ba3ec;stroke:#3ba3ec;" x="277.326863" xlink:href="#C0_0_da519e3fd1" y="211.189483"/>
    </g>
    <g clip-path="url(#p5e26a68c34)">
     <use style="fill:#3ba3ec;stroke:#3ba3ec;" x="259.43856" xlink:href="#C0_0_da519e3fd1" y="287.943677"/>
    </g>
    <g clip-path="url(#p5e26a68c34)">
     <use style="fill:#3ba3ec;stroke:#3ba3ec;" x="295.653984" xlink:href="#C0_0_da519e3fd1" y="289.809864"/>
    </g>
    <g clip-path="url(#p5e26a68c34)">
     <use style="fill:#e866f4;stroke:#e866f4;" x="351.423802" xlink:href="#C0_0_da519e3fd1" y="185.498839"/>
    </g>
    <g clip-path="url(#p5e26a68c34)">
     <use style="fill:#e866f4;stroke:#e866f4;" x="180.362535" xlink:href="#C0_0_da519e3fd1" y="97.047437"/>
    </g>
    <g clip-path="url(#p5e26a68c34)">
     <use style="fill:#e866f4;stroke:#e866f4;" x="189.692666" xlink:href="#C0_0_da519e3fd1" y="81.202281"/>
    </g>
    <g clip-path="url(#p5e26a68c34)">
     <use style="fill:#e866f4;stroke:#e866f4;" x="204.023694" xlink:href="#C0_0_da519e3fd1" y="201.514031"/>
    </g>
    <g clip-path="url(#p5e26a68c34)">
     <use style="fill:#e866f4;stroke:#e866f4;" x="272.007428" xlink:href="#C0_0_da519e3fd1" y="202.614152"/>
    </g>
    <g clip-path="url(#p5e26a68c34)">
     <use style="fill:#e866f4;stroke:#e866f4;" x="283.596634" xlink:href="#C0_0_da519e3fd1" y="178.148812"/>
    </g>
    <g clip-path="url(#p5e26a68c34)">
     <use style="fill:#e866f4;stroke:#e866f4;" x="290.47668" xlink:href="#C0_0_da519e3fd1" y="169.417768"/>
    </g>
    <g clip-path="url(#p5e26a68c34)">
     <use style="fill:#e866f4;stroke:#e866f4;" x="264.364233" xlink:href="#C0_0_da519e3fd1" y="212.724814"/>
    </g>
    <g clip-path="url(#p5e26a68c34)">
     <use style="fill:#e866f4;stroke:#e866f4;" x="273.048718" xlink:href="#C0_0_da519e3fd1" y="238.141484"/>
    </g>
    <g clip-path="url(#p5e26a68c34)">
     <use style="fill:#e866f4;stroke:#e866f4;" x="340.726509" xlink:href="#C0_0_da519e3fd1" y="163.65981"/>
    </g>
    <g clip-path="url(#p5e26a68c34)">
     <use style="fill:#e866f4;stroke:#e866f4;" x="328.111299" xlink:href="#C0_0_da519e3fd1" y="273.358285"/>
    </g>
    <g clip-path="url(#p5e26a68c34)">
     <use style="fill:#e866f4;stroke:#e866f4;" x="128.8282" xlink:href="#C0_0_da519e3fd1" y="277.439518"/>
    </g>
    <g clip-path="url(#p5e26a68c34)">
     <use style="fill:#e866f4;stroke:#e866f4;" x="135.408683" xlink:href="#C0_0_da519e3fd1" y="278.136437"/>
    </g>
    <g clip-path="url(#p5e26a68c34)">
     <use style="fill:#e866f4;stroke:#e866f4;" x="144.912542" xlink:href="#C0_0_da519e3fd1" y="316.000207"/>
    </g>
    <g clip-path="url(#p5e26a68c34)">
     <use style="fill:#e866f4;stroke:#e866f4;" x="226.350166" xlink:href="#C0_0_da519e3fd1" y="280.809997"/>
    </g>
    <g clip-path="url(#p5e26a68c34)">
     <use style="fill:#e866f4;stroke:#e866f4;" x="228.146192" xlink:href="#C0_0_da519e3fd1" y="293.510597"/>
    </g>
    <g clip-path="url(#p5e26a68c34)">
     <use style="fill:#e866f4;stroke:#e866f4;" x="247.147014" xlink:href="#C0_0_da519e3fd1" y="260.877625"/>
    </g>
    <g clip-path="url(#p5e26a68c34)">
     <use style="fill:#e866f4;stroke:#e866f4;" x="258.198545" xlink:href="#C0_0_da519e3fd1" y="256.543797"/>
    </g>
    <g clip-path="url(#p5e26a68c34)">
     <use style="fill:#e866f4;stroke:#e866f4;" x="258.979453" xlink:href="#C0_0_da519e3fd1" y="279.112685"/>
    </g>
    <g clip-path="url(#p5e26a68c34)">
     <use style="fill:#e866f4;stroke:#e866f4;" x="315.696873" xlink:href="#C0_0_da519e3fd1" y="291.308912"/>
    </g>
    <g clip-path="url(#p5e26a68c34)">
     <use style="fill:#e866f4;stroke:#e866f4;" x="305.628136" xlink:href="#C0_0_da519e3fd1" y="313.592003"/>
    </g>
    <g clip-path="url(#p5e26a68c34)">
     <use style="fill:#e866f4;stroke:#e866f4;" x="117.596846" xlink:href="#C0_0_da519e3fd1" y="290.847133"/>
    </g>
    <g clip-path="url(#p5e26a68c34)">
     <use style="fill:#e866f4;stroke:#e866f4;" x="132.915807" xlink:href="#C0_0_da519e3fd1" y="291.421666"/>
    </g>
    <g clip-path="url(#p5e26a68c34)">
     <use style="fill:#e866f4;stroke:#e866f4;" x="124.669782" xlink:href="#C0_0_da519e3fd1" y="316.34572"/>
    </g>
    <g clip-path="url(#p5e26a68c34)">
     <use style="fill:#e866f4;stroke:#e866f4;" x="207.18068" xlink:href="#C0_0_da519e3fd1" y="317.288434"/>
    </g>
    <g clip-path="url(#p5e26a68c34)">
     <use style="fill:#e866f4;stroke:#e866f4;" x="233.68009" xlink:href="#C0_0_da519e3fd1" y="300.055786"/>
    </g>
    <g clip-path="url(#p5e26a68c34)">
     <use style="fill:#e866f4;stroke:#e866f4;" x="243.426059" xlink:href="#C0_0_da519e3fd1" y="289.431753"/>
    </g>
    <g clip-path="url(#p5e26a68c34)">
     <use style="fill:#e866f4;stroke:#e866f4;" x="236.570581" xlink:href="#C0_0_da519e3fd1" y="324.009625"/>
    </g>
    <g clip-path="url(#p5e26a68c34)">
     <use style="fill:#e866f4;stroke:#e866f4;" x="255.197264" xlink:href="#C0_0_da519e3fd1" y="331.355196"/>
    </g>
    <g clip-path="url(#p5e26a68c34)">
     <use style="fill:#e866f4;stroke:#e866f4;" x="291.907418" xlink:href="#C0_0_da519e3fd1" y="331.659932"/>
    </g>
   </g>
   <g id="text_25">
    <!-- ax.scatter -->
    <defs>
     <path d="M 34.28125 27.484375 
Q 23.390625 27.484375 19.1875 25 
Q 14.984375 22.515625 14.984375 16.5 
Q 14.984375 11.71875 18.140625 8.90625 
Q 21.296875 6.109375 26.703125 6.109375 
Q 34.1875 6.109375 38.703125 11.40625 
Q 43.21875 16.703125 43.21875 25.484375 
L 43.21875 27.484375 
z
M 52.203125 31.203125 
L 52.203125 0 
L 43.21875 0 
L 43.21875 8.296875 
Q 40.140625 3.328125 35.546875 0.953125 
Q 30.953125 -1.421875 24.3125 -1.421875 
Q 15.921875 -1.421875 10.953125 3.296875 
Q 6 8.015625 6 15.921875 
Q 6 25.140625 12.171875 29.828125 
Q 18.359375 34.515625 30.609375 34.515625 
L 43.21875 34.515625 
L 43.21875 35.40625 
Q 43.21875 41.609375 39.140625 45 
Q 35.0625 48.390625 27.6875 48.390625 
Q 23 48.390625 18.546875 47.265625 
Q 14.109375 46.140625 10.015625 43.890625 
L 10.015625 52.203125 
Q 14.9375 54.109375 19.578125 55.046875 
Q 24.21875 56 28.609375 56 
Q 40.484375 56 46.34375 49.84375 
Q 52.203125 43.703125 52.203125 31.203125 
z
" id="DejaVuSans-97"/>
     <path d="M 54.890625 54.6875 
L 35.109375 28.078125 
L 55.90625 0 
L 45.3125 0 
L 29.390625 21.484375 
L 13.484375 0 
L 2.875 0 
L 24.125 28.609375 
L 4.6875 54.6875 
L 15.28125 54.6875 
L 29.78125 35.203125 
L 44.28125 54.6875 
z
" id="DejaVuSans-120"/>
     <path d="M 10.6875 12.40625 
L 21 12.40625 
L 21 0 
L 10.6875 0 
z
" id="DejaVuSans-46"/>
     <path d="M 44.28125 53.078125 
L 44.28125 44.578125 
Q 40.484375 46.53125 36.375 47.5 
Q 32.28125 48.484375 27.875 48.484375 
Q 21.1875 48.484375 17.84375 46.4375 
Q 14.5 44.390625 14.5 40.28125 
Q 14.5 37.15625 16.890625 35.375 
Q 19.28125 33.59375 26.515625 31.984375 
L 29.59375 31.296875 
Q 39.15625 29.25 43.1875 25.515625 
Q 47.21875 21.78125 47.21875 15.09375 
Q 47.21875 7.46875 41.1875 3.015625 
Q 35.15625 -1.421875 24.609375 -1.421875 
Q 20.21875 -1.421875 15.453125 -0.5625 
Q 10.6875 0.296875 5.421875 2 
L 5.421875 11.28125 
Q 10.40625 8.6875 15.234375 7.390625 
Q 20.0625 6.109375 24.8125 6.109375 
Q 31.15625 6.109375 34.5625 8.28125 
Q 37.984375 10.453125 37.984375 14.40625 
Q 37.984375 18.0625 35.515625 20.015625 
Q 33.0625 21.96875 24.703125 23.78125 
L 21.578125 24.515625 
Q 13.234375 26.265625 9.515625 29.90625 
Q 5.8125 33.546875 5.8125 39.890625 
Q 5.8125 47.609375 11.28125 51.796875 
Q 16.75 56 26.8125 56 
Q 31.78125 56 36.171875 55.265625 
Q 40.578125 54.546875 44.28125 53.078125 
z
" id="DejaVuSans-115"/>
     <path d="M 48.78125 52.59375 
L 48.78125 44.1875 
Q 44.96875 46.296875 41.140625 47.34375 
Q 37.3125 48.390625 33.40625 48.390625 
Q 24.65625 48.390625 19.8125 42.84375 
Q 14.984375 37.3125 14.984375 27.296875 
Q 14.984375 17.28125 19.8125 11.734375 
Q 24.65625 6.203125 33.40625 6.203125 
Q 37.3125 6.203125 41.140625 7.25 
Q 44.96875 8.296875 48.78125 10.40625 
L 48.78125 2.09375 
Q 45.015625 0.34375 40.984375 -0.53125 
Q 36.96875 -1.421875 32.421875 -1.421875 
Q 20.0625 -1.421875 12.78125 6.34375 
Q 5.515625 14.109375 5.515625 27.296875 
Q 5.515625 40.671875 12.859375 48.328125 
Q 20.21875 56 33.015625 56 
Q 37.15625 56 41.109375 55.140625 
Q 45.0625 54.296875 48.78125 52.59375 
z
" id="DejaVuSans-99"/>
     <path d="M 18.3125 70.21875 
L 18.3125 54.6875 
L 36.8125 54.6875 
L 36.8125 47.703125 
L 18.3125 47.703125 
L 18.3125 18.015625 
Q 18.3125 11.328125 20.140625 9.421875 
Q 21.96875 7.515625 27.59375 7.515625 
L 36.8125 7.515625 
L 36.8125 0 
L 27.59375 0 
Q 17.1875 0 13.234375 3.875 
Q 9.28125 7.765625 9.28125 18.015625 
L 9.28125 47.703125 
L 2.6875 47.703125 
L 2.6875 54.6875 
L 9.28125 54.6875 
L 9.28125 70.21875 
z
" id="DejaVuSans-116"/>
     <path d="M 56.203125 29.59375 
L 56.203125 25.203125 
L 14.890625 25.203125 
Q 15.484375 15.921875 20.484375 11.0625 
Q 25.484375 6.203125 34.421875 6.203125 
Q 39.59375 6.203125 44.453125 7.46875 
Q 49.3125 8.734375 54.109375 11.28125 
L 54.109375 2.78125 
Q 49.265625 0.734375 44.1875 -0.34375 
Q 39.109375 -1.421875 33.890625 -1.421875 
Q 20.796875 -1.421875 13.15625 6.1875 
Q 5.515625 13.8125 5.515625 26.8125 
Q 5.515625 40.234375 12.765625 48.109375 
Q 20.015625 56 32.328125 56 
Q 43.359375 56 49.78125 48.890625 
Q 56.203125 41.796875 56.203125 29.59375 
z
M 47.21875 32.234375 
Q 47.125 39.59375 43.09375 43.984375 
Q 39.0625 48.390625 32.421875 48.390625 
Q 24.90625 48.390625 20.390625 44.140625 
Q 15.875 39.890625 15.1875 32.171875 
z
" id="DejaVuSans-101"/>
     <path d="M 41.109375 46.296875 
Q 39.59375 47.171875 37.8125 47.578125 
Q 36.03125 48 33.890625 48 
Q 26.265625 48 22.1875 43.046875 
Q 18.109375 38.09375 18.109375 28.8125 
L 18.109375 0 
L 9.078125 0 
L 9.078125 54.6875 
L 18.109375 54.6875 
L 18.109375 46.1875 
Q 20.953125 51.171875 25.484375 53.578125 
Q 30.03125 56 36.53125 56 
Q 37.453125 56 38.578125 55.875 
Q 39.703125 55.765625 41.0625 55.515625 
z
" id="DejaVuSans-114"/>
    </defs>
    <g transform="translate(193.100625 35.76)scale(0.12 -0.12)">
     <use xlink:href="#DejaVuSans-97"/>
     <use x="61.279297" xlink:href="#DejaVuSans-120"/>
     <use x="120.458984" xlink:href="#DejaVuSans-46"/>
     <use x="152.246094" xlink:href="#DejaVuSans-115"/>
     <use x="204.345703" xlink:href="#DejaVuSans-99"/>
     <use x="259.326172" xlink:href="#DejaVuSans-97"/>
     <use x="320.605469" xlink:href="#DejaVuSans-116"/>
     <use x="359.814453" xlink:href="#DejaVuSans-116"/>
     <use x="399.023438" xlink:href="#DejaVuSans-101"/>
     <use x="460.546875" xlink:href="#DejaVuSans-114"/>
    </g>
   </g>
   <g id="legend_1">
    <g id="patch_6">
     <path d="M 467.8 73.9125 
L 506.2 73.9125 
Q 508.2 73.9125 508.2 71.9125 
L 508.2 14.2 
Q 508.2 12.2 506.2 12.2 
L 467.8 12.2 
Q 465.8 12.2 465.8 14.2 
L 465.8 71.9125 
Q 465.8 73.9125 467.8 73.9125 
z
" style="fill:#ffffff;opacity:0.8;stroke:#cccccc;stroke-linejoin:miter;"/>
    </g>
    <g id="line2d_25"/>
    <g id="line2d_26">
     <defs>
      <path d="M 0 3 
C 0.795609 3 1.55874 2.683901 2.12132 2.12132 
C 2.683901 1.55874 3 0.795609 3 0 
C 3 -0.795609 2.683901 -1.55874 2.12132 -2.12132 
C 1.55874 -2.683901 0.795609 -3 0 -3 
C -0.795609 -3 -1.55874 -2.683901 -2.12132 -2.12132 
C -2.683901 -1.55874 -3 -0.795609 -3 0 
C -3 0.795609 -2.683901 1.55874 -2.12132 2.12132 
C -1.55874 2.683901 -0.795609 3 0 3 
z
" id="me9acfee9ac" style="stroke:#f77189;"/>
     </defs>
     <g>
      <use style="fill:#f77189;stroke:#f77189;" x="479.8" xlink:href="#me9acfee9ac" y="20.298438"/>
     </g>
    </g>
    <g id="text_26">
     <!-- $\mathdefault{0}$ -->
     <g transform="translate(497.8 23.798438)scale(0.1 -0.1)">
      <use transform="translate(0 0.78125)" xlink:href="#DejaVuSans-48"/>
     </g>
    </g>
    <g id="line2d_27"/>
    <g id="line2d_28">
     <defs>
      <path d="M 0 3 
C 0.795609 3 1.55874 2.683901 2.12132 2.12132 
C 2.683901 1.55874 3 0.795609 3 0 
C 3 -0.795609 2.683901 -1.55874 2.12132 -2.12132 
C 1.55874 -2.683901 0.795609 -3 0 -3 
C -0.795609 -3 -1.55874 -2.683901 -2.12132 -2.12132 
C -2.683901 -1.55874 -3 -0.795609 -3 0 
C -3 0.795609 -2.683901 1.55874 -2.12132 2.12132 
C -1.55874 2.683901 -0.795609 3 0 3 
z
" id="m8629e14fe6" style="stroke:#50b131;"/>
     </defs>
     <g>
      <use style="fill:#50b131;stroke:#50b131;" x="479.8" xlink:href="#m8629e14fe6" y="34.976563"/>
     </g>
    </g>
    <g id="text_27">
     <!-- $\mathdefault{1}$ -->
     <g transform="translate(497.8 38.476563)scale(0.1 -0.1)">
      <use transform="translate(0 0.09375)" xlink:href="#DejaVuSans-49"/>
     </g>
    </g>
    <g id="line2d_29"/>
    <g id="line2d_30">
     <defs>
      <path d="M 0 3 
C 0.795609 3 1.55874 2.683901 2.12132 2.12132 
C 2.683901 1.55874 3 0.795609 3 0 
C 3 -0.795609 2.683901 -1.55874 2.12132 -2.12132 
C 1.55874 -2.683901 0.795609 -3 0 -3 
C -0.795609 -3 -1.55874 -2.683901 -2.12132 -2.12132 
C -2.683901 -1.55874 -3 -0.795609 -3 0 
C -3 0.795609 -2.683901 1.55874 -2.12132 2.12132 
C -1.55874 2.683901 -0.795609 3 0 3 
z
" id="me67bee6add" style="stroke:#3ba3ec;"/>
     </defs>
     <g>
      <use style="fill:#3ba3ec;stroke:#3ba3ec;" x="479.8" xlink:href="#me67bee6add" y="49.654688"/>
     </g>
    </g>
    <g id="text_28">
     <!-- $\mathdefault{2}$ -->
     <g transform="translate(497.8 53.154688)scale(0.1 -0.1)">
      <use transform="translate(0 0.78125)" xlink:href="#DejaVuSans-50"/>
     </g>
    </g>
    <g id="line2d_31"/>
    <g id="line2d_32">
     <defs>
      <path d="M 0 3 
C 0.795609 3 1.55874 2.683901 2.12132 2.12132 
C 2.683901 1.55874 3 0.795609 3 0 
C 3 -0.795609 2.683901 -1.55874 2.12132 -2.12132 
C 1.55874 -2.683901 0.795609 -3 0 -3 
C -0.795609 -3 -1.55874 -2.683901 -2.12132 -2.12132 
C -2.683901 -1.55874 -3 -0.795609 -3 0 
C -3 0.795609 -2.683901 1.55874 -2.12132 2.12132 
C -1.55874 2.683901 -0.795609 3 0 3 
z
" id="md4e04e23b2" style="stroke:#e866f4;"/>
     </defs>
     <g>
      <use style="fill:#e866f4;stroke:#e866f4;" x="479.8" xlink:href="#md4e04e23b2" y="64.332813"/>
     </g>
    </g>
    <g id="text_29">
     <!-- $\mathdefault{3}$ -->
     <g transform="translate(497.8 67.832813)scale(0.1 -0.1)">
      <use transform="translate(0 0.78125)" xlink:href="#DejaVuSans-51"/>
     </g>
    </g>
   </g>
  </g>
 </g>
 <defs>
  <clipPath id="p5e26a68c34">
   <rect height="432" width="432" x="7.2" y="7.2"/>
  </clipPath>
 </defs>
</svg>
